<?xml version="1.0" encoding="UTF-8"?>
<svg version="1.1" xmlns="http://www.w3.org/2000/svg" width="1024" height="1024">
<path d="M0 0 C337.92 0 675.84 0 1024 0 C1024 337.92 1024 675.84 1024 1024 C686.08 1024 348.16 1024 0 1024 C0 686.08 0 348.16 0 0 Z " fill="#FEFEFE" transform="translate(0,0)"/>
<path d="M0 0 C9.55495837 5.82707688 17.77601295 13.22460598 21.0625 24.2578125 C21.61243493 27.59004536 21.92165874 30.88466426 22.0625 34.2578125 C23.10664063 34.28359375 24.15078125 34.309375 25.2265625 34.3359375 C47.07997612 35.08706983 66.86681876 40.04950745 87.0625 48.2578125 C87.4028125 46.3396875 87.4028125 46.3396875 87.75 44.3828125 C90.9099589 30.45720052 100.30323702 19.03967771 112.0625 11.2578125 C123.51215567 5.071305 135.98509352 3.11346754 148.75 6.12890625 C163.19461345 11.32419764 173.14918328 21.55164522 179.8359375 35.16796875 C185.9055603 50.45800579 184.01277705 66.30450756 178.0625 81.2578125 C177.75183594 82.05574219 177.44117188 82.85367188 177.12109375 83.67578125 C172.08112183 94.99876749 163.21908872 101.84801413 153.0625 108.2578125 C157.15807454 116.01789834 161.60848821 123.45588529 166.375 130.8203125 C167.055625 131.87935791 167.73625 132.93840332 168.4375 134.02954102 C172.22186698 139.90556347 176.04154615 145.7573628 179.88671875 151.59375 C180.47638176 152.49011421 180.47638176 152.49011421 181.07795715 153.40458679 C182.98887978 156.30914458 184.90441602 159.21041748 186.8293457 162.10571289 C187.51472412 163.1446167 188.20010254 164.18352051 188.90625 165.25390625 C189.51662109 166.17357178 190.12699219 167.0932373 190.75585938 168.04077148 C192.0625 170.2578125 192.0625 170.2578125 192.0625 172.2578125 C193.2278125 172.21140625 194.393125 172.165 195.59375 172.1171875 C209.47150296 171.74393667 222.47253785 173.57343568 236.0625 176.2578125 C236.82095215 176.39670898 237.5794043 176.53560547 238.36083984 176.67871094 C258.21623942 180.32761065 277.36849324 188.71590968 295.0625 198.2578125 C296.54169922 199.02351563 296.54169922 199.02351563 298.05078125 199.8046875 C341.26110368 222.54052901 373.92624387 264.18135909 389.02392578 310.1875 C402.60166048 354.35441221 401.85937947 402.78406242 380.9296875 444.69140625 C373.82021622 458.10774425 364.54397133 470.310498 354.0625 481.2578125 C353.40765625 481.96421875 352.7528125 482.670625 352.078125 483.3984375 C345.8733361 489.90105627 338.74739587 494.66858778 331.0625 499.2578125 C331.71316437 499.25923752 332.36382874 499.26066254 333.03421021 499.26213074 C339.81555158 499.28183985 346.5959943 499.33614028 353.37695312 499.41040039 C355.9065099 499.43357611 358.43616312 499.44797507 360.96582031 499.45336914 C364.60542878 499.46266115 368.24352121 499.5036618 371.8828125 499.55078125 C373.01115509 499.5468486 374.13949768 499.54291595 375.30203247 499.53886414 C384.07869848 499.70140733 384.07869848 499.70140733 387.74951172 502.5871582 C390.68327308 505.97457804 391.29806942 507.78199349 391.0625 512.2578125 C389.3298402 515.28319895 387.225084 517.6765205 384.0625 519.2578125 C381.27094411 519.35926478 378.50411933 519.39886921 375.7121315 519.39482689 C374.83366707 519.39747872 373.95520265 519.40013054 373.05011809 519.40286273 C370.07378644 519.41058983 367.09749582 519.4111162 364.12115479 519.41171265 C361.97880783 519.41572502 359.83646163 519.42016286 357.69411635 519.4249922 C351.7814009 519.43698857 345.86869363 519.44261322 339.95596838 519.44717336 C333.589089 519.45311781 327.22221945 519.46473047 320.85534668 519.47546387 C306.19462328 519.49885281 291.53389779 519.51339867 276.87316137 519.52569328 C271.80214762 519.52994647 266.73113425 519.53451215 261.66012096 519.5392766 C234.71020645 519.56453451 207.76029134 519.58658759 180.81036758 519.59900475 C174.5646591 519.60192618 168.31895063 519.60489368 162.07324219 519.60791016 C161.29727431 519.60828107 160.52130644 519.60865197 159.72182439 519.60903412 C134.55615402 519.62119296 109.39055354 519.65214189 84.224916 519.69383168 C58.36362171 519.73659592 32.50236433 519.76324275 6.64103372 519.76847946 C2.99019909 519.76921994 -0.66063547 519.77013063 -4.31147003 519.77113724 C-5.03001074 519.77132785 -5.74855145 519.77151847 -6.48886613 519.77171486 C-18.06403356 519.77523178 -29.63911361 519.79554501 -41.21424893 519.82193387 C-52.84413496 519.84804825 -64.47389584 519.85540365 -76.10380957 519.84483258 C-82.40730236 519.83962988 -88.71051669 519.84263733 -95.01396942 519.86729813 C-100.78027891 519.88966989 -106.54610794 519.8891449 -112.31242517 519.87009425 C-114.40263981 519.86727725 -116.49288622 519.87298619 -118.58304951 519.88790719 C-121.41721303 519.90690832 -124.24964477 519.89529559 -127.08376694 519.87584496 C-128.31065572 519.89511879 -128.31065572 519.89511879 -129.56233013 519.91478199 C-133.6532552 519.85278443 -136.19510367 519.45779094 -139.44325089 516.8617636 C-141.9375 514.2578125 -141.9375 514.2578125 -142.69921875 511.9765625 C-142.66248047 510.87828125 -142.66248047 510.87828125 -142.625 509.7578125 C-142.62886719 509.025625 -142.63273437 508.2934375 -142.63671875 507.5390625 C-141.56200745 504.03274182 -139.77622361 502.54650595 -136.9375 500.2578125 C-134.00683005 499.78819549 -131.67042665 499.62095574 -128.75073242 499.69018555 C-127.94045593 499.68945541 -127.13017944 499.68872528 -126.29534912 499.68797302 C-123.62719899 499.691446 -120.96081243 499.73029147 -118.29296875 499.76953125 C-116.43924412 499.77886045 -114.58550713 499.78597606 -112.73176575 499.79096985 C-107.86033907 499.81003126 -102.98966159 499.85912465 -98.11853027 499.91448975 C-93.14487848 499.96570073 -88.17110525 499.98848784 -83.19726562 500.01367188 C-73.44368182 500.06724423 -63.69065329 500.15254667 -53.9375 500.2578125 C-54.19291565 499.02714554 -54.4483313 497.79647858 -54.71148682 496.52851868 C-62.17500639 460.55208563 -69.03194198 424.47884032 -75.54806519 388.31945801 C-77.52332865 377.36722572 -79.64118233 366.4484486 -81.859375 355.54296875 C-82.03791016 354.66398926 -82.21644531 353.78500977 -82.40039062 352.87939453 C-82.76856761 351.08235612 -83.14256376 349.28650297 -83.52148438 347.49169922 C-83.70517578 346.60885254 -83.88886719 345.72600586 -84.078125 344.81640625 C-84.24344727 344.03450928 -84.40876953 343.2526123 -84.57910156 342.44702148 C-84.9375 340.2578125 -84.9375 340.2578125 -84.9375 336.2578125 C-85.73929688 336.23203125 -86.54109375 336.20625 -87.3671875 336.1796875 C-123.7387093 334.36523517 -159.19683732 316.79269888 -183.9375 290.2578125 C-205.94042929 264.74538172 -217.08797064 234.0165041 -215.18115234 200.29199219 C-211.90466692 159.49022783 -189.81548602 125.33915123 -159.9375 98.2578125 C-155.93402627 94.85188955 -151.77575953 91.64977703 -147.57617188 88.49072266 C-146.12114418 87.3959834 -144.67694077 86.28689044 -143.234375 85.17578125 C-122.58671872 69.62670267 -99.27633996 57.75381596 -74.9375 49.2578125 C-73.78604492 48.85127441 -73.78604492 48.85127441 -72.61132812 48.43652344 C-60.71847622 44.2578125 -60.71847622 44.2578125 -56.9375 44.2578125 C-56.98390625 43.37480469 -57.0303125 42.49179687 -57.078125 41.58203125 C-57.44515643 29.37823613 -54.78302736 19.7559454 -46.9375 10.2578125 C-35.01693592 -2.17142129 -16.28989138 -8.08838357 0 0 Z " fill="#E29A5C" transform="translate(404.9375,252.7421875)"/>
<path d="M0 0 C9.55495837 5.82707688 17.77601295 13.22460598 21.0625 24.2578125 C21.61243493 27.59004536 21.92165874 30.88466426 22.0625 34.2578125 C23.10664063 34.28359375 24.15078125 34.309375 25.2265625 34.3359375 C47.07997612 35.08706983 66.86681876 40.04950745 87.0625 48.2578125 C87.4028125 46.3396875 87.4028125 46.3396875 87.75 44.3828125 C90.9099589 30.45720052 100.30323702 19.03967771 112.0625 11.2578125 C123.51215567 5.071305 135.98509352 3.11346754 148.75 6.12890625 C163.19461345 11.32419764 173.14918328 21.55164522 179.8359375 35.16796875 C185.9055603 50.45800579 184.01277705 66.30450756 178.0625 81.2578125 C177.75183594 82.05574219 177.44117188 82.85367188 177.12109375 83.67578125 C172.08112183 94.99876749 163.21908872 101.84801413 153.0625 108.2578125 C157.15807454 116.01789834 161.60848821 123.45588529 166.375 130.8203125 C167.055625 131.87935791 167.73625 132.93840332 168.4375 134.02954102 C172.22186698 139.90556347 176.04154615 145.7573628 179.88671875 151.59375 C180.47638176 152.49011421 180.47638176 152.49011421 181.07795715 153.40458679 C182.98887978 156.30914458 184.90441602 159.21041748 186.8293457 162.10571289 C187.51472412 163.1446167 188.20010254 164.18352051 188.90625 165.25390625 C189.51662109 166.17357178 190.12699219 167.0932373 190.75585938 168.04077148 C192.0625 170.2578125 192.0625 170.2578125 192.0625 172.2578125 C193.2278125 172.21140625 194.393125 172.165 195.59375 172.1171875 C209.47150296 171.74393667 222.47253785 173.57343568 236.0625 176.2578125 C236.82095215 176.39670898 237.5794043 176.53560547 238.36083984 176.67871094 C258.21623942 180.32761065 277.36849324 188.71590968 295.0625 198.2578125 C296.54169922 199.02351563 296.54169922 199.02351563 298.05078125 199.8046875 C341.26110368 222.54052901 373.92624387 264.18135909 389.02392578 310.1875 C402.60166048 354.35441221 401.85937947 402.78406242 380.9296875 444.69140625 C373.82021622 458.10774425 364.54397133 470.310498 354.0625 481.2578125 C353.40765625 481.96421875 352.7528125 482.670625 352.078125 483.3984375 C345.8733361 489.90105627 338.74739587 494.66858778 331.0625 499.2578125 C331.71316437 499.25923752 332.36382874 499.26066254 333.03421021 499.26213074 C339.81555158 499.28183985 346.5959943 499.33614028 353.37695312 499.41040039 C355.9065099 499.43357611 358.43616312 499.44797507 360.96582031 499.45336914 C364.60542878 499.46266115 368.24352121 499.5036618 371.8828125 499.55078125 C373.01115509 499.5468486 374.13949768 499.54291595 375.30203247 499.53886414 C384.07869848 499.70140733 384.07869848 499.70140733 387.74951172 502.5871582 C390.68327308 505.97457804 391.29806942 507.78199349 391.0625 512.2578125 C389.3298402 515.28319895 387.225084 517.6765205 384.0625 519.2578125 C381.27094411 519.35926478 378.50411933 519.39886921 375.7121315 519.39482689 C374.83366707 519.39747872 373.95520265 519.40013054 373.05011809 519.40286273 C370.07378644 519.41058983 367.09749582 519.4111162 364.12115479 519.41171265 C361.97880783 519.41572502 359.83646163 519.42016286 357.69411635 519.4249922 C351.7814009 519.43698857 345.86869363 519.44261322 339.95596838 519.44717336 C333.589089 519.45311781 327.22221945 519.46473047 320.85534668 519.47546387 C306.19462328 519.49885281 291.53389779 519.51339867 276.87316137 519.52569328 C271.80214762 519.52994647 266.73113425 519.53451215 261.66012096 519.5392766 C234.71020645 519.56453451 207.76029134 519.58658759 180.81036758 519.59900475 C174.5646591 519.60192618 168.31895063 519.60489368 162.07324219 519.60791016 C161.29727431 519.60828107 160.52130644 519.60865197 159.72182439 519.60903412 C134.55615402 519.62119296 109.39055354 519.65214189 84.224916 519.69383168 C58.36362171 519.73659592 32.50236433 519.76324275 6.64103372 519.76847946 C2.99019909 519.76921994 -0.66063547 519.77013063 -4.31147003 519.77113724 C-5.03001074 519.77132785 -5.74855145 519.77151847 -6.48886613 519.77171486 C-18.06403356 519.77523178 -29.63911361 519.79554501 -41.21424893 519.82193387 C-52.84413496 519.84804825 -64.47389584 519.85540365 -76.10380957 519.84483258 C-82.40730236 519.83962988 -88.71051669 519.84263733 -95.01396942 519.86729813 C-100.78027891 519.88966989 -106.54610794 519.8891449 -112.31242517 519.87009425 C-114.40263981 519.86727725 -116.49288622 519.87298619 -118.58304951 519.88790719 C-121.41721303 519.90690832 -124.24964477 519.89529559 -127.08376694 519.87584496 C-128.31065572 519.89511879 -128.31065572 519.89511879 -129.56233013 519.91478199 C-133.6532552 519.85278443 -136.19510367 519.45779094 -139.44325089 516.8617636 C-141.9375 514.2578125 -141.9375 514.2578125 -142.69921875 511.9765625 C-142.66248047 510.87828125 -142.66248047 510.87828125 -142.625 509.7578125 C-142.62886719 509.025625 -142.63273437 508.2934375 -142.63671875 507.5390625 C-141.56200745 504.03274182 -139.77622361 502.54650595 -136.9375 500.2578125 C-134.00683005 499.78819549 -131.67042665 499.62095574 -128.75073242 499.69018555 C-127.94045593 499.68945541 -127.13017944 499.68872528 -126.29534912 499.68797302 C-123.62719899 499.691446 -120.96081243 499.73029147 -118.29296875 499.76953125 C-116.43924412 499.77886045 -114.58550713 499.78597606 -112.73176575 499.79096985 C-107.86033907 499.81003126 -102.98966159 499.85912465 -98.11853027 499.91448975 C-93.14487848 499.96570073 -88.17110525 499.98848784 -83.19726562 500.01367188 C-73.44368182 500.06724423 -63.69065329 500.15254667 -53.9375 500.2578125 C-54.19291565 499.02714554 -54.4483313 497.79647858 -54.71148682 496.52851868 C-62.17500639 460.55208563 -69.03194198 424.47884032 -75.54806519 388.31945801 C-77.52332865 377.36722572 -79.64118233 366.4484486 -81.859375 355.54296875 C-82.03791016 354.66398926 -82.21644531 353.78500977 -82.40039062 352.87939453 C-82.76856761 351.08235612 -83.14256376 349.28650297 -83.52148438 347.49169922 C-83.70517578 346.60885254 -83.88886719 345.72600586 -84.078125 344.81640625 C-84.24344727 344.03450928 -84.40876953 343.2526123 -84.57910156 342.44702148 C-84.9375 340.2578125 -84.9375 340.2578125 -84.9375 336.2578125 C-85.73929688 336.23203125 -86.54109375 336.20625 -87.3671875 336.1796875 C-123.7387093 334.36523517 -159.19683732 316.79269888 -183.9375 290.2578125 C-205.94042929 264.74538172 -217.08797064 234.0165041 -215.18115234 200.29199219 C-211.90466692 159.49022783 -189.81548602 125.33915123 -159.9375 98.2578125 C-155.93402627 94.85188955 -151.77575953 91.64977703 -147.57617188 88.49072266 C-146.12114418 87.3959834 -144.67694077 86.28689044 -143.234375 85.17578125 C-122.58671872 69.62670267 -99.27633996 57.75381596 -74.9375 49.2578125 C-73.78604492 48.85127441 -73.78604492 48.85127441 -72.61132812 48.43652344 C-60.71847622 44.2578125 -60.71847622 44.2578125 -56.9375 44.2578125 C-56.98390625 43.37480469 -57.0303125 42.49179687 -57.078125 41.58203125 C-57.44515643 29.37823613 -54.78302736 19.7559454 -46.9375 10.2578125 C-35.01693592 -2.17142129 -16.28989138 -8.08838357 0 0 Z M120.0625 29.2578125 C119.03125 29.9590625 118 30.6603125 116.9375 31.3828125 C106.15623579 41.02149708 103.7495455 56.05085827 102.45703125 69.66796875 C102.0625 73.2578125 102.0625 73.2578125 101.0625 76.2578125 C97.12451917 75.22150176 93.97597088 73.65953837 90.5625 71.5078125 C55.64574648 50.15247664 7.05099062 48.49201578 -31.9375 57.2578125 C-32.79939941 57.44504883 -33.66129883 57.63228516 -34.54931641 57.82519531 C-80.58012788 67.97634361 -121.88014626 89.73921129 -155.9375 122.2578125 C-156.78260132 123.06351685 -156.78260132 123.06351685 -157.64477539 123.88549805 C-161.79320696 127.9281574 -165.42543251 132.17074509 -168.875 136.8203125 C-169.39006104 137.51213623 -169.90512207 138.20395996 -170.43579102 138.91674805 C-189.03685732 164.34043114 -198.81777771 194.4723001 -194.35546875 226.04296875 C-189.64224027 252.65798992 -173.24228448 277.23504966 -151.40234375 292.91796875 C-134.77726416 304.35873003 -116.66015009 311.34083908 -96.9375 315.2578125 C-95.93460937 315.48339844 -94.93171875 315.70898438 -93.8984375 315.94140625 C-63.32281587 321.91642665 -23.07446638 316.72713979 5.87109375 305.1328125 C9.09102817 303.84713459 11.63721674 303.88414524 15.0625 304.2578125 C17.5 305.7578125 17.5 305.7578125 19.0625 308.2578125 C19.61468306 311.03580562 19.7920645 313.51121674 19.0625 316.2578125 C16.1013523 320.10657696 12.45446247 321.61333853 8 323.1953125 C7.30245605 323.44837158 6.60491211 323.70143066 5.88623047 323.9621582 C-17.27539634 332.1354957 -40.53957383 334.74482599 -64.9375 336.2578125 C-61.88422743 366.95302286 -61.88422743 366.95302286 -48.9375 394.2578125 C-48.16246677 395.40211455 -47.39177918 396.54936947 -46.625 397.69921875 C-38.95748592 409.01016151 -30.04062054 420.03322418 -19.9375 429.2578125 C-19.2775 429.2578125 -18.6175 429.2578125 -17.9375 429.2578125 C-17.9375 429.9178125 -17.9375 430.5778125 -17.9375 431.2578125 C-15.92964149 432.8720331 -13.92638435 434.35576594 -11.8125 435.8203125 C-11.17723389 436.26503906 -10.54196777 436.70976563 -9.88745117 437.16796875 C-7.91137352 438.54212226 -5.92636347 439.90224372 -3.9375 441.2578125 C-3.08067627 441.8453833 -3.08067627 441.8453833 -2.20654297 442.44482422 C12.86440098 452.70199703 28.66712702 460.77860411 46.0625 466.2578125 C47.19726469 462.11844817 47.37210371 458.02658376 47.5625 453.7578125 C47.60310547 452.92628662 47.64371094 452.09476074 47.68554688 451.23803711 C47.81497075 448.57812767 47.93910626 445.91800796 48.0625 443.2578125 C48.34216776 437.32470463 48.62959513 431.39219754 48.94628906 425.4609375 C49.05094505 423.47687105 49.14709459 421.49236028 49.2421875 419.5078125 C49.30664062 418.4559375 49.37109375 417.4040625 49.4375 416.3203125 C49.51097656 415.00740234 49.51097656 415.00740234 49.5859375 413.66796875 C50.17311584 410.6983865 51.3240183 408.71994792 53.0625 406.2578125 C56.19650885 404.69080808 59.69405095 404.40616689 63.0625 405.2578125 C65.3760107 407.37973644 66.87024378 409.13095343 67.40866089 412.28674316 C67.51550985 414.81824161 67.48447926 417.31501229 67.40625 419.84765625 C67.39098267 420.80655258 67.37571533 421.76544891 67.35998535 422.75340271 C67.10444312 435.12230149 66.32248586 447.47436764 65.5625 459.8203125 C65.34569128 463.39038085 65.13088608 466.96053587 64.92053223 470.5309906 C64.79094244 472.72626549 64.65770996 474.92133009 64.51989746 477.11610413 C64.08019758 484.503674 63.99169124 491.8580624 64.0625 499.2578125 C78.59730299 501.49000982 78.59730299 501.49000982 92.14648438 497.86474609 C95.43430957 494.17352538 97.31844891 489.7887177 99.18261719 485.25244141 C100.3678138 482.56568882 101.98934194 480.42488981 103.8125 478.1328125 C113.89521038 464.56071342 122.51452842 449.80668764 130.88745117 435.1394043 C131.64505737 433.82903198 131.64505737 433.82903198 132.41796875 432.4921875 C132.85778076 431.72100586 133.29759277 430.94982422 133.75073242 430.15527344 C135.0625 428.2578125 135.0625 428.2578125 138.0625 426.2578125 C141.5711342 425.71312534 144.89495911 425.6375564 148.0625 427.3203125 C149.65681877 430.40930511 149.68928546 432.92474059 149.0625 436.2578125 C146.06337283 444.93260157 141.69198417 452.78132679 137 460.6328125 C136.38833984 461.67308594 135.77667969 462.71335937 135.14648438 463.78515625 C132.73057103 467.87523225 130.32312932 471.94546186 127.62890625 475.859375 C125.88023053 478.05945933 125.88023053 478.05945933 126.0625 480.2578125 C132.48473287 480.4867063 138.90590921 480.64389607 145.33129883 480.75219727 C147.51496683 480.79735651 149.69836418 480.85870155 151.88110352 480.93676758 C155.02688332 481.04642907 158.16905886 481.0970793 161.31640625 481.13671875 C162.2864711 481.18317032 163.25653595 481.22962189 164.2559967 481.27748108 C168.47006955 481.28059338 171.01930876 481.22842258 174.18762207 478.2805481 C176.07648915 475.90293163 176.07648915 475.90293163 177.63819885 473.43522644 C179.48596249 470.61044019 181.67540094 468.9155686 184.4375 467.0078125 C185.36949219 466.36328125 186.30148437 465.71875 187.26171875 465.0546875 C191.09721218 462.59398042 195.00937613 460.33941686 199.0625 458.2578125 C198.92972656 457.46117187 198.79695313 456.66453125 198.66015625 455.84375 C198.12760417 452.6484375 197.59505208 449.453125 197.0625 446.2578125 C196.89210205 445.32388672 196.7217041 444.38996094 196.54614258 443.42773438 C193.04155167 420.45771501 197.16205202 400.36663429 210.0625 381.2578125 C219.03495988 369.26834335 233.16085703 359.17970328 248.0625 356.2578125 C251.93804553 355.92371375 254.39042512 355.98612265 258 357.4453125 C258.680625 358.0434375 259.36125 358.6415625 260.0625 359.2578125 C260.19140625 361.87109375 260.19140625 361.87109375 260.0625 364.2578125 C259.31226563 364.53753906 258.56203125 364.81726563 257.7890625 365.10546875 C240.99761213 371.68247261 226.62939552 383.63082075 219.0625 400.2578125 C212.71003922 416.06691774 209.97610687 433.90219639 216.0625 450.2578125 C217.12882668 453.06999874 217.12882668 453.06999874 219.0625 455.2578125 C222.15789331 456.19001627 222.15789331 456.19001627 225.6875 456.3828125 C235.130378 457.43418448 243.06058601 459.25589851 250 466.1953125 C251.40023374 468.91341328 250.75571447 470.35587331 250.0625 473.2578125 C248.57423706 473.2263916 248.57423706 473.2263916 247.0559082 473.19433594 C243.31175651 473.12095655 239.56766574 473.07566414 235.82299805 473.03808594 C234.21416474 473.01819012 232.60540158 472.99106321 230.99682617 472.95605469 C217.06965102 472.66093225 204.15936138 473.86127665 193.0625 483.2578125 C189.42985438 486.79651039 186.44402408 490.28432581 185.0625 495.2578125 C185.0625 496.2478125 185.0625 497.2378125 185.0625 498.2578125 C197.69406572 498.37422589 210.3255015 498.46278987 222.95749664 498.51687336 C228.82456053 498.54284516 234.69125444 498.57801415 240.55810547 498.63500977 C246.23158854 498.68977501 251.90471821 498.71932613 257.57844543 498.73219872 C259.73116103 498.74135929 261.88385971 498.75924518 264.03642273 498.78646278 C280.22514235 498.98281202 293.78999785 497.15059692 308.3125 489.4453125 C308.96959961 489.1047583 309.62669922 488.7642041 310.30371094 488.41333008 C339.28113135 473.09699544 360.65399696 446.88352027 370.59790039 415.75244141 C374.50309175 402.90199394 377.4857693 389.71486212 378.0625 376.2578125 C378.10334717 375.31180176 378.10334717 375.31180176 378.14501953 374.34667969 C379.88698407 327.30268126 360.68145958 282.30899974 329.0625 248.2578125 C328.52367187 247.66484375 327.98484375 247.071875 327.4296875 246.4609375 C322.16155117 240.90159765 316.02750458 236.32976453 309.95068359 231.70166016 C308.11859104 230.30070394 306.30339396 228.87987599 304.48828125 227.45703125 C291.39372698 217.35292265 276.79241623 209.70154477 261.25317383 204.05688477 C259.52283595 203.42572508 257.80028989 202.77320567 256.08081055 202.11303711 C247.69007266 198.97195641 239.36339797 196.73187456 230.60913086 194.88989258 C228.46794489 194.43855566 226.33066876 193.97127257 224.19335938 193.50195312 C216.20838203 191.68438659 216.20838203 191.68438659 208.0625 191.2578125 C212.40832698 201.25558932 222.34941235 209.72406298 229.9375 217.3203125 C230.66267822 218.04629639 231.38785645 218.77228027 232.13500977 219.52026367 C235.01696998 222.37217217 237.81252742 225.06688856 241.0390625 227.53125 C243.0625 229.2578125 243.0625 229.2578125 243.5625 232.8203125 C243.0625 236.2578125 243.0625 236.2578125 242 238.1953125 C238.93583162 239.8756629 236.51288909 239.54121201 233.0625 239.2578125 C230.55429658 238.03690336 228.51175482 236.88557725 226.25 235.3203125 C225.6425293 234.91353271 225.03505859 234.50675293 224.40917969 234.08764648 C218.84739141 230.27877539 213.88301111 225.96677459 209.0625 221.2578125 C208.23105469 220.46503906 207.39960937 219.67226563 206.54296875 218.85546875 C181.18890612 194.20244011 162.3756597 161.37558092 143.69726562 131.55395508 C141.05453296 127.34137637 138.35431201 123.19191068 135.51953125 119.10546875 C134.66343262 117.86337646 134.66343262 117.86337646 133.79003906 116.59619141 C132.71521173 115.04635973 131.62811876 113.50492986 130.52636719 111.97412109 C128.53251423 109.0937327 127.15663681 107.07091923 126.75 103.55859375 C128.87271469 99.83752545 132.28682702 98.45596366 136 96.5078125 C149.14743268 89.16971054 159.17765779 80.41668953 163.59765625 65.53515625 C165.43725293 56.52267841 164.33035193 46.41483054 159.4375 38.5703125 C155.19322572 32.71757241 150.10424502 27.41903972 143.0625 25.2578125 C134.79196395 24.46132191 127.00537459 24.21298995 120.0625 29.2578125 Z " fill="#4E3231" transform="translate(404.9375,252.7421875)"/>
<path d="M0 0 C0.71589294 -0.00376648 1.43178589 -0.00753296 2.16937256 -0.01141357 C27.31076938 -0.07850732 52.88263543 4.51019573 75.6875 15.3125 C75.6875 17.9525 75.6875 20.5925 75.6875 23.3125 C74.429375 22.920625 73.17125 22.52875 71.875 22.125 C69.81334472 21.51795706 67.7507014 20.91426707 65.6875 20.3125 C65.07003906 20.12494141 64.45257813 19.93738281 63.81640625 19.74414062 C32.14371721 10.20528983 -2.79566994 7.80151137 -35.3125 14.3125 C-36.20050293 14.48410645 -37.08850586 14.65571289 -38.00341797 14.83251953 C-51.5574406 17.50228741 -64.40863403 21.4153007 -77.3125 26.3125 C-77.97266113 26.55581055 -78.63282227 26.79912109 -79.31298828 27.04980469 C-99.03105532 34.31786267 -116.91376312 44.66013493 -134.3125 56.3125 C-133.45011719 56.31507813 -132.58773437 56.31765625 -131.69921875 56.3203125 C-104.3082469 57.18803072 -79.87671394 71.75245736 -61.3125 91.3125 C-57.39653907 95.78825245 -53.84062255 100.52957514 -50.3125 105.3125 C-49.68859375 106.13105469 -49.0646875 106.94960938 -48.421875 107.79296875 C-39.59317003 119.77772947 -32.63202789 133.07957284 -28.3125 147.3125 C-27.94511719 148.46234375 -27.57773437 149.6121875 -27.19921875 150.796875 C-19.45241402 176.1500541 -19.83840128 205.16895708 -28.3125 230.3125 C-28.52390625 230.94510742 -28.7353125 231.57771484 -28.953125 232.22949219 C-30.5699359 236.99767434 -32.37173896 241.66730897 -34.3125 246.3125 C-34.60108887 247.01745605 -34.88967773 247.72241211 -35.18701172 248.44873047 C-40.10338414 260.10816425 -40.10338414 260.10816425 -44.77734375 262.65625 C-47.68653363 263.23723359 -50.34762166 263.32796221 -53.3125 263.3125 C-55.3334986 263.51922395 -57.35431956 263.72768893 -59.375 263.9375 C-62.0227854 264.09103679 -64.66258818 264.21742343 -67.3125 264.3125 C-68.69646973 264.36349854 -68.69646973 264.36349854 -70.10839844 264.41552734 C-107.82805193 265.5968901 -143.84795633 256.11605234 -172.3125 230.3125 C-191.53235466 211.57181069 -204.0195803 186.73560165 -204.72998047 159.67114258 C-204.96726248 124.30744233 -189.42318359 94.46949628 -165.3125 69.3125 C-164.34957031 68.28962891 -164.34957031 68.28962891 -163.3671875 67.24609375 C-150.61570604 54.05579612 -135.04732692 43.59623064 -119.3125 34.3125 C-118.46824463 33.79719727 -118.46824463 33.79719727 -117.60693359 33.27148438 C-100.26974537 22.69613789 -80.93394499 14.52485456 -61.3125 9.3125 C-59.98750488 8.95164307 -59.98750488 8.95164307 -58.63574219 8.58349609 C-38.93104733 3.25763617 -20.42301673 0.0592164 0 0 Z " fill="#FDFDFC" transform="translate(414.3125,305.6875)"/>
<path d="M0 0 C9.55495837 5.82707688 17.77601295 13.22460598 21.0625 24.2578125 C21.61243493 27.59004536 21.92165874 30.88466426 22.0625 34.2578125 C23.10664063 34.28359375 24.15078125 34.309375 25.2265625 34.3359375 C47.07997612 35.08706983 66.86681876 40.04950745 87.0625 48.2578125 C87.4028125 46.3396875 87.4028125 46.3396875 87.75 44.3828125 C90.9099589 30.45720052 100.30323702 19.03967771 112.0625 11.2578125 C123.51215567 5.071305 135.98509352 3.11346754 148.75 6.12890625 C163.19461345 11.32419764 173.14918328 21.55164522 179.8359375 35.16796875 C185.9055603 50.45800579 184.01277705 66.30450756 178.0625 81.2578125 C177.75183594 82.05574219 177.44117188 82.85367188 177.12109375 83.67578125 C172.08112183 94.99876749 163.21908872 101.84801413 153.0625 108.2578125 C157.15807454 116.01789834 161.60848821 123.45588529 166.375 130.8203125 C167.055625 131.87935791 167.73625 132.93840332 168.4375 134.02954102 C172.22186698 139.90556347 176.04154615 145.7573628 179.88671875 151.59375 C180.47638176 152.49011421 180.47638176 152.49011421 181.07795715 153.40458679 C182.98887978 156.30914458 184.90441602 159.21041748 186.8293457 162.10571289 C187.51472412 163.1446167 188.20010254 164.18352051 188.90625 165.25390625 C189.51662109 166.17357178 190.12699219 167.0932373 190.75585938 168.04077148 C192.0625 170.2578125 192.0625 170.2578125 192.0625 172.2578125 C193.2278125 172.21140625 194.393125 172.165 195.59375 172.1171875 C210.65249437 171.71738406 225.46078086 173.46617094 240.0625 177.2578125 C240.18625 178.3921875 240.31 179.5265625 240.4375 180.6953125 C240.64375 181.8709375 240.85 183.0465625 241.0625 184.2578125 C241.7225 184.5878125 242.3825 184.9178125 243.0625 185.2578125 C241.26073976 187.15440223 239.46077714 188.71959981 237.375 190.3203125 C236.2303125 191.279375 236.2303125 191.279375 235.0625 192.2578125 C235.0625 192.9178125 235.0625 193.5778125 235.0625 194.2578125 C228.29250808 195.33531872 223.11341976 195.00224394 216.5 193.3203125 C215.68208984 193.12501953 214.86417969 192.92972656 214.02148438 192.72851562 C212.03194256 192.25149098 210.0467124 191.75654118 208.0625 191.2578125 C215.44545802 200.71282685 223.2958562 209.56563874 231.75 218.0703125 C232.28455811 218.60954346 232.81911621 219.14877441 233.36987305 219.7043457 C235.95262882 222.27672095 238.5475278 224.67254101 241.41796875 226.921875 C244.0625 229.2578125 244.0625 229.2578125 244.6875 232.8203125 C244.0625 236.2578125 244.0625 236.2578125 242.5 238.6953125 C239.12183231 240.86080461 237.03794688 240.61996501 233.0625 240.2578125 C230.55424921 239.0368803 228.51174597 237.88566954 226.25 236.3203125 C225.6418042 235.91280762 225.0336084 235.50530273 224.40698242 235.08544922 C218.84503607 231.27485252 213.88248824 226.96931226 209.0625 222.2578125 C207.70511719 220.9584375 207.70511719 220.9584375 206.3203125 219.6328125 C180.6775025 194.62929693 161.61802085 161.76253088 142.69726562 131.55395508 C140.05453296 127.34137637 137.35431201 123.19191068 134.51953125 119.10546875 C133.66343262 117.86337646 133.66343262 117.86337646 132.79003906 116.59619141 C131.71521173 115.04635973 130.62811876 113.50492986 129.52636719 111.97412109 C126.0704536 106.98158974 126.0704536 106.98158974 126.03125 103.4140625 C127.23322959 100.90083246 128.07648461 100.15153926 130.5 98.8203125 C131.221875 98.40523438 131.94375 97.99015625 132.6875 97.5625 C133.47125 97.13195312 134.255 96.70140625 135.0625 96.2578125 C148.15354711 88.91507774 158.18562966 80.38984932 162.59765625 65.53515625 C164.44695283 56.47515705 163.31602448 46.37392347 158.375 38.5078125 C154.30546486 32.89979457 149.77319394 28.37043837 143.0625 26.2578125 C134.76058264 25.45829974 127.05868341 25.25554136 120.0625 30.2578125 C119.19625 30.7940625 118.33 31.3303125 117.4375 31.8828125 C107.89705984 41.42325266 104.87446715 54.4791231 103.74511719 67.47094727 C103.4124024 71.1389145 103.04844969 74.10655349 101.0625 77.2578125 C97.12451917 76.22150176 93.97597088 74.65953837 90.5625 72.5078125 C55.64574648 51.15247664 7.05099062 49.49201578 -31.9375 58.2578125 C-32.79939941 58.44504883 -33.66129883 58.63228516 -34.54931641 58.82519531 C-89.50039508 70.94352498 -145.24084585 100.74175432 -176.51660156 148.93701172 C-183.59863218 160.5043284 -188.55588742 173.15761587 -191.9375 186.2578125 C-192.18242187 187.19882812 -192.42734375 188.13984375 -192.6796875 189.109375 C-198.05662695 214.66825157 -192.41021149 241.36957227 -178.4921875 263.234375 C-175.22886532 268.10782366 -171.6208602 272.69706762 -167.9375 277.2578125 C-168.9275 277.2578125 -169.9175 277.2578125 -170.9375 277.2578125 C-171.5975 276.5978125 -172.2575 275.9378125 -172.9375 275.2578125 C-176.6195025 277.09881375 -178.90099061 280.75817986 -180.9375 284.2578125 C-181.15109224 287.13680186 -181.15109224 287.13680186 -179.9375 289.2578125 C-179.2775 289.5878125 -178.6175 289.9178125 -177.9375 290.2578125 C-179.5875 290.5878125 -181.2375 290.9178125 -182.9375 291.2578125 C-205.71387559 263.6439766 -217.84250961 233.43362353 -214.9375 197.2578125 C-210.60402965 156.85202909 -187.70390237 120.95179944 -156.51171875 95.3984375 C-153.5705499 93.04606857 -150.58580587 90.75465859 -147.57617188 88.49072266 C-146.12114418 87.3959834 -144.67694077 86.28689044 -143.234375 85.17578125 C-122.58671872 69.62670267 -99.27633996 57.75381596 -74.9375 49.2578125 C-73.78604492 48.85127441 -73.78604492 48.85127441 -72.61132812 48.43652344 C-60.71847622 44.2578125 -60.71847622 44.2578125 -56.9375 44.2578125 C-56.98390625 43.37480469 -57.0303125 42.49179687 -57.078125 41.58203125 C-57.44515643 29.37823613 -54.78302736 19.7559454 -46.9375 10.2578125 C-35.01693592 -2.17142129 -16.28989138 -8.08838357 0 0 Z " fill="#4D3131" transform="translate(404.9375,252.7421875)"/>
<path d="M0 0 C2.18359375 2.30859375 2.18359375 2.30859375 4.4375 5.4375 C5.31515026 6.63243393 6.19413167 7.82639094 7.07421875 9.01953125 C7.5439209 9.6635791 8.01362305 10.30762695 8.49755859 10.97119141 C10.60696991 13.8196165 12.79853565 16.60032896 14.98950195 19.38623047 C21.15260565 27.22365398 27.13242824 35.18113183 33.01708984 43.22924805 C36.402546 47.85418553 39.845767 52.42157007 43.375 56.9375 C47.1929484 61.85342049 50.65975307 66.91456572 54.03125 72.14453125 C56.63208735 75.91677749 59.61877721 79.2864839 62.7265625 82.6484375 C64 85 64 85 63.46875 87.609375 C62.9840625 88.72828125 62.499375 89.8471875 62 91 C61.34559539 92.72430968 60.69776691 94.45112216 60.0546875 96.1796875 C59.32940319 98.07861369 58.60280856 99.97703986 57.875 101.875 C57.50246094 102.84953125 57.12992188 103.8240625 56.74609375 104.828125 C55.83186418 107.21918696 54.91646803 109.60979532 54 112 C53.67 112 53.34 112 53 112 C52.9906543 111.26885986 52.98130859 110.53771973 52.97167969 109.78442383 C52.91787336 106.45977282 52.83424496 103.13651322 52.75 99.8125 C52.73582031 98.66201172 52.72164062 97.51152344 52.70703125 96.32617188 C52.67480469 95.21435547 52.64257812 94.10253906 52.609375 92.95703125 C52.58842773 91.93585205 52.56748047 90.91467285 52.54589844 89.86254883 C51.867279 86.30404575 50.49017703 84.58572898 48 82 C45.25551049 81.1369867 42.79323808 81.3633482 40 82 C37.56880377 83.87015094 36.35930827 85.28138345 35 88 C34.78697968 90.0869334 34.63018635 92.17970395 34.5 94.2734375 C34.41814453 95.56467529 34.33628906 96.85591309 34.25195312 98.1862793 C34.19019897 99.21294205 34.19019897 99.21294205 34.12719727 100.26034546 C33.99981774 102.37803002 33.86663274 104.49528721 33.73242188 106.61254883 C33.34128903 112.86057284 32.97891405 119.10816513 32.71875 125.36328125 C32.68007813 126.2773877 32.64140625 127.19149414 32.6015625 128.13330078 C32.53562727 129.79150829 32.47785646 131.45006806 32.4296875 133.10888672 C32.28043887 136.95627907 31.85525476 139.64359973 30 143 C8.32628889 134.81365518 -10.13162529 124.48188954 -29 111 C-29.75498779 110.47905762 -30.50997559 109.95811523 -31.2878418 109.42138672 C-32.13536011 108.71780029 -32.13536011 108.71780029 -33 108 C-33 107.34 -33 106.68 -33 106 C-33.58394531 105.74089844 -34.16789062 105.48179687 -34.76953125 105.21484375 C-45.44073654 99.40268115 -53.2459712 86.21103075 -60.1875 76.5 C-60.91791504 75.48691772 -60.91791504 75.48691772 -61.66308594 74.45336914 C-68.8331538 64.27716416 -72.9757972 55.04244438 -75.25 42.75 C-75.49959473 41.47616455 -75.74918945 40.2023291 -76.00634766 38.88989258 C-77.66147679 30.28970102 -79.06532258 21.70695547 -80 13 C-79.29206299 12.96036133 -78.58412598 12.92072266 -77.85473633 12.87988281 C-54.74846234 11.5287042 -30.41562569 9.19765854 -8.76953125 0.28515625 C-3.41477372 -1.54045538 -3.41477372 -1.54045538 0 0 Z " fill="#FEFDFD" transform="translate(420,576)"/>
<path d="M0 0 C166.98 0 333.96 0 506 0 C506 0.33 506 0.66 506 1 C502.33431501 1.63084308 498.66727996 2.25350183 495 2.875 C493.4840625 3.13603516 493.4840625 3.13603516 491.9375 3.40234375 C477.65184175 5.81304858 463.34360696 7.31974363 448.91015625 8.4375 C447.31137095 8.56405212 445.71261154 8.69093171 444.11387634 8.81811523 C439.93997452 9.14931031 435.7657487 9.47622245 431.59143066 9.80212402 C426.59692894 10.19291841 421.60285177 10.58909654 416.60870075 10.98434258 C412.55107184 11.30522893 408.49334209 11.6247044 404.43534851 11.94094849 C397.65577345 12.46985484 390.87737378 13.00314914 384.1027832 13.59326172 C368.10359053 14.97740343 352.11277135 15.66921904 336.0625 16.125 C335.35306118 16.14568039 334.64362236 16.16636078 333.91268539 16.18766785 C269.68147347 18.05401501 205.18672221 18.24452489 141 15 C139.43881121 14.9242907 137.87761387 14.84875745 136.31640625 14.7734375 C127.19966726 14.3244451 118.09970794 13.71203496 109 13 C108.15296509 12.93425781 107.30593018 12.86851562 106.43322754 12.80078125 C29.9873693 6.85089797 29.9873693 6.85089797 0 2 C0 1.34 0 0.68 0 0 Z " fill="#C9D3D8" transform="translate(273,772)"/>
<path d="M0 0 C0.33 0 0.66 0 1 0 C1.81736749 3.9990211 2.62800952 7.99937762 3.4375 12 C3.78264648 13.68802734 3.78264648 13.68802734 4.13476562 15.41015625 C11.2608361 50.73067949 5.0643814 89.16972654 -14 120 C-19.33693554 127.91044005 -25.47087836 135.05748891 -32 142 C-32.80630859 142.90298828 -32.80630859 142.90298828 -33.62890625 143.82421875 C-46.28798709 157.43511018 -70.0007 171.97379401 -89.038311 173.12304783 C-90.12787031 173.12166514 -90.12787031 173.12166514 -91.23944092 173.12025452 C-92.49719078 173.12231651 -92.49719078 173.12231651 -93.78034973 173.12442017 C-94.69169174 173.12082489 -95.60303375 173.11722961 -96.54199219 173.11352539 C-97.99127357 173.11374443 -97.99127357 173.11374443 -99.46983337 173.1139679 C-102.66220345 173.11327144 -105.85451512 173.1054915 -109.046875 173.09765625 C-111.26076221 173.09579112 -113.47464983 173.09436767 -115.6885376 173.09336853 C-121.51480245 173.08955082 -127.34104236 173.07972687 -133.16729736 173.06866455 C-139.11283023 173.05843441 -145.05836712 173.05386747 -151.00390625 173.04882812 C-162.66928179 173.03810396 -174.33463882 173.02103646 -186 173 C-184.84686753 164.92807272 -181.04991034 160.76970217 -175.09765625 155.515625 C-170.47571641 152.17612284 -166.5153625 151.76408091 -160.8828125 151.83984375 C-160.19724777 151.8454985 -159.51168304 151.85115326 -158.80534363 151.85697937 C-157.33858252 151.86950502 -155.87185227 151.88623149 -154.40518188 151.90679932 C-150.55802005 151.95859803 -146.7107349 151.97297184 -142.86328125 151.98828125 C-141.71780067 151.99356842 -141.71780067 151.99356842 -140.54917908 151.9989624 C-130.68193153 152.03107324 -120.84250993 151.70274202 -111 151 C-110.31035156 150.95149902 -109.62070312 150.90299805 -108.91015625 150.85302734 C-76.67156925 148.29891394 -48.0137862 132.00914703 -27 108 C-14.56239807 92.84742894 -6.49366454 74.164078 -3 55 C-2.60457441 53.22907557 -2.20880572 51.45822768 -1.8125 49.6875 C0.28791827 38.46634656 0.12799 27.1156049 0.0625 15.75 C0.05747043 14.21484522 0.05291012 12.67968884 0.04882812 11.14453125 C0.03794839 7.4296533 0.02076577 3.71483741 0 0 Z " fill="#C0723E" transform="translate(776,578)"/>
<path d="M0 0 C1.96793431 2.16329129 3.63153739 4.19919108 5.3125 6.5625 C5.76689453 7.17802734 6.22128906 7.79355469 6.68945312 8.42773438 C7.80524319 9.94285983 8.90430371 11.47028033 10 13 C-9.01731212 25.67820808 -39.67299868 29.42893127 -62 29 C-57.67071939 48.37989731 -51.12004674 64.75377968 -38 80 C-37.49210937 80.59296875 -36.98421875 81.1859375 -36.4609375 81.796875 C-18.54799831 101.08773259 7.56149277 111.18632762 32 119 C32.05819424 122.24992446 32.09366116 125.49971435 32.125 128.75 C32.14175781 129.67039062 32.15851563 130.59078125 32.17578125 131.5390625 C32.18222656 132.42851563 32.18867188 133.31796875 32.1953125 134.234375 C32.20578613 135.05131836 32.21625977 135.86826172 32.22705078 136.70996094 C31.97829916 139.21887518 31.25700129 140.83395625 30 143 C8.32628889 134.81365518 -10.13162529 124.48188954 -29 111 C-29.75498779 110.47905762 -30.50997559 109.95811523 -31.2878418 109.42138672 C-32.13536011 108.71780029 -32.13536011 108.71780029 -33 108 C-33 107.34 -33 106.68 -33 106 C-33.58394531 105.74089844 -34.16789062 105.48179687 -34.76953125 105.21484375 C-45.44073654 99.40268115 -53.2459712 86.21103075 -60.1875 76.5 C-60.91791504 75.48691772 -60.91791504 75.48691772 -61.66308594 74.45336914 C-68.8331538 64.27716416 -72.9757972 55.04244438 -75.25 42.75 C-75.49959473 41.47616455 -75.74918945 40.2023291 -76.00634766 38.88989258 C-77.66147679 30.28970102 -79.06532258 21.70695547 -80 13 C-79.29206299 12.96036133 -78.58412598 12.92072266 -77.85473633 12.87988281 C-54.74846234 11.5287042 -30.41562569 9.19765854 -8.76953125 0.28515625 C-3.33242796 -1.56852974 -3.33242796 -1.56852974 0 0 Z " fill="#CDD9DD" transform="translate(420,576)"/>
<path d="M0 0 C4.04225985 1.85270243 5.40671093 4.47246807 7.60546875 8.24609375 C9.40039572 10.98624836 11.16008438 12.15478683 14.32421875 12.984375 C21.61832627 14.04920822 30.68378284 14.85936764 37 10.375 C38.57607339 8.36762264 39.80866427 6.37664094 40.9921875 4.1171875 C42 2.375 42 2.375 44 1.375 C47.375 1 47.375 1 51 1.375 C53.96255075 3.94774144 54.86978968 5.94367831 56 9.6875 C56 15.45946402 54.07497628 19.25002429 50.0546875 23.3671875 C41.8533756 30.66060509 41.8533756 30.66060509 36.3125 30.5 C35.50425781 30.48195313 34.69601562 30.46390625 33.86328125 30.4453125 C33.24839844 30.42210937 32.63351562 30.39890625 32 30.375 C32.04169759 37.24392929 32.11405199 44.11205019 32.20751953 50.98046875 C32.23570929 53.31600645 32.2569337 55.6516392 32.27099609 57.98730469 C32.29245246 61.34880159 32.33911906 64.70915807 32.390625 68.0703125 C32.39185364 69.11115997 32.39308228 70.15200745 32.39434814 71.22439575 C32.54816667 78.87345023 34.04355511 82.07073807 39.125 87.75 C43.36119564 90.14437145 47.2473154 90.29891562 52 89.375 C54.6904757 87.25696594 56.3716864 85.23179127 58.375 82.5 C60 81.375 60 81.375 63.4375 81.3125 C67 82.375 67 82.375 69.5 85 C71.41406866 89.30665448 71.51912279 90.89358777 70 95.375 C66.56363898 100.45742037 62.5209854 105.26963928 56.45703125 107.00390625 C46.36863552 108.52759082 37.532174 108.36278811 29 102.375 C26.375 100.0625 26.375 100.0625 25 98.375 C22.56125571 99.45888635 20.74714634 100.58685036 18.6875 102.3125 C11.71483811 107.66361262 5.59824273 108.04748826 -3 107.375 C-9.04786611 106.1197825 -13.87498125 102.77421472 -17.9375 98.1875 C-19.55195865 93.91393298 -19.67626168 89.88087839 -19 85.375 C-17.00481239 82.15200463 -15.81150499 81.59140133 -12.1875 80.625 C-8.42342549 81.51066459 -7.85923201 82.43767803 -5.5 85.375 C-2.88988601 88.73313911 -2.88988601 88.73313911 1.0625 90.125 C6.03841897 88.8545526 9.16364855 86.62952717 12 82.375 C12.3276397 79.97200223 12.3276397 79.97200223 12.31884766 77.26098633 C12.33871735 76.22013382 12.35858704 75.17928131 12.37905884 74.10688782 C12.39061005 72.98493515 12.40216125 71.86298248 12.4140625 70.70703125 C12.43342865 69.55708176 12.4527948 68.40713226 12.4727478 67.22233582 C12.53259761 63.54413301 12.57895106 59.865899 12.625 56.1875 C12.66317476 53.69594978 12.70222619 51.20441283 12.7421875 48.71289062 C12.83830362 42.60037806 12.92333538 36.48778579 13 30.375 C11.10072754 30.41016724 11.10072754 30.41016724 9.16308594 30.44604492 C3.50837854 30.5507484 0.23589217 27.91046905 -4 24.375 C-8.77405378 19.24289218 -9.47366908 14.89592701 -9.41015625 8.0546875 C-8.96583413 5.15178298 -8.50508417 4.09379843 -6.375 2.125 C-3 0.375 -3 0.375 0 0 Z " fill="#4E3231" transform="translate(242,410.625)"/>
<path d="M0 0 C7.46284892 4.34875571 13.93896137 10.65021962 16.6953125 18.95703125 C18.39616818 27.98702868 18.41072087 38.47245674 13.125 46.23828125 C8.50616128 52.46756253 3.17461478 58.04598899 -4.64453125 59.91015625 C-15.37487436 61.4887006 -23.85729041 60.5225395 -32.875 54.23828125 C-35.68110744 51.81782329 -37.82083537 49.31666724 -39.875 46.23828125 C-40.30683594 45.60664063 -40.73867188 44.975 -41.18359375 44.32421875 C-45.16667557 37.18499251 -45.01301955 28.16132613 -43.875 20.23828125 C-42.69482683 16.48318481 -41.10652071 13.46520333 -38.875 10.23828125 C-38.318125 9.33078125 -37.76125 8.42328125 -37.1875 7.48828125 C-27.48112128 -1.95576291 -12.74682456 -5.09390148 0 0 Z " fill="#4F3030" transform="translate(455.875,361.76171875)"/>
<path d="M0 0 C7.61819969 4.74278375 12.27495659 11.12525423 15.5 19.4375 C16.3125 22.9375 16.3125 22.9375 16.5 26.4375 C16.57347656 27.16195313 16.64695312 27.88640625 16.72265625 28.6328125 C17.373871 39.01885291 13.01903915 48.6585712 6.3515625 56.4609375 C5.43503906 57.43933594 5.43503906 57.43933594 4.5 58.4375 C3.95085938 59.02789062 3.40171875 59.61828125 2.8359375 60.2265625 C-2.09621961 64.9848991 -7.92067692 68.09363438 -13.95288086 71.2421875 C-17.63808476 73.20126435 -20.31361496 74.72650929 -22.5 78.4375 C-25.25799098 77.05850451 -25.93852596 75.06077638 -27.5 72.4375 C-29.56467856 70.02870835 -30.38994659 69.47418447 -33.5 68.4375 C-33.5 67.4475 -33.5 66.4575 -33.5 65.4375 C-32.90832031 65.12296875 -32.31664062 64.8084375 -31.70703125 64.484375 C-22.58044286 59.58738477 -22.58044286 59.58738477 -16.5 51.4375 C-16.13140846 48.78253239 -15.86963411 46.22667598 -15.6875 43.5625 C-15.13457836 37.88348037 -14.44036336 33.54458013 -10.1640625 29.5 C-7.67577086 27.91123163 -5.41863087 27.50699121 -2.5 27.4375 C-3.10183749 25.41704558 -3.77306096 23.41638961 -4.5 21.4375 C-8.045783 19.6646085 -11.63724931 19.81427665 -15.5 20.4375 C-21.5333141 23.15356489 -24.7459282 27.64641219 -27.43359375 33.52734375 C-28.63667149 36.81046798 -29.46720438 40.10783964 -30.3125 43.5 C-32.13805005 50.43103028 -35.26747946 54.63678941 -40.5 59.4375 C-41.82 59.1075 -43.14 58.7775 -44.5 58.4375 C-45.24020663 19.86451022 -45.24020663 19.86451022 -32.5 6.4375 C-23.62617201 -1.35194983 -11.38344425 -5.21088902 0 0 Z " fill="#FDBDA1" transform="translate(552.5,279.5625)"/>
<path d="M0 0 C2.17851618 2.81849571 4.08266215 5.71052016 5.9375 8.75 C19.26172754 30.63432491 19.26172754 30.63432491 38 47 C38 47.66 38 48.32 38 49 C38.598125 49.268125 39.19625 49.53625 39.8125 49.8125 C41.97224808 50.98493467 43.35790256 52.19369282 45 54 C44.05125 54.268125 43.1025 54.53625 42.125 54.8125 C38.74732727 55.74986588 38.74732727 55.74986588 37 59 C36.65720646 63.02782407 36.93139117 65.5500943 39 69 C44.07461407 74.21756095 50.46191107 79.73095553 57 83 C55.72106757 86.51600643 54.23551925 89.30721142 51.98828125 92.29296875 C51.39909912 93.08405029 50.80991699 93.87513184 50.20288086 94.69018555 C48.92698575 96.37572488 47.65044025 98.06077206 46.37329102 99.74536133 C42.41973238 104.93722726 42.41973238 104.93722726 38.9765625 110.46875 C37.45119279 113.16331171 36.34702329 114.98742403 34 117 C30.82055664 117.37231445 30.82055664 117.37231445 27.28515625 117.23828125 C26.10961182 117.20387939 24.93406738 117.16947754 23.72290039 117.1340332 C22.82434326 117.08980225 21.92578613 117.04557129 21 117 C20.81993408 115.95549683 20.81993408 115.95549683 20.63623047 114.88989258 C18.31969235 101.5213102 15.88690425 88.20886406 13.0625 74.9375 C10.42141715 62.48789952 8.22238219 49.99261585 6.12280273 37.44262695 C4.62575728 28.51442848 3.02646887 19.62008796 1.11669922 10.76928711 C0.34332998 7.11893425 -0.1904795 3.73632869 0 0 Z " fill="#B86937" transform="translate(349,635)"/>
<path d="M0 0 C42.41363695 4.57814692 80.08364207 20.91717109 112 49 C112.75796875 49.64710938 113.5159375 50.29421875 114.296875 50.9609375 C135.56084232 69.17542114 151.27794486 93.73917738 159.9375 120.3125 C160.37968872 121.65465576 160.37968872 121.65465576 160.83081055 123.02392578 C164.05210748 133.42206167 164.16462262 143.75212938 164.125 154.5625 C164.12886719 155.62146484 164.13273438 156.68042969 164.13671875 157.77148438 C164.12874574 164.24158555 163.78659223 170.57735794 163 177 C162.67 177 162.34 177 162 177 C161.92483154 176.43716309 161.84966309 175.87432617 161.7722168 175.29443359 C160.26119895 164.0857192 158.6597289 153.00219564 156 142 C155.72542969 140.80375 155.45085937 139.6075 155.16796875 138.375 C148.32900868 110.43712058 131.93844996 85.37762287 112 65 C111.40058594 64.3503125 110.80117188 63.700625 110.18359375 63.03125 C85.59677258 36.90390119 50.25397999 22.77945536 16.93505859 11.96826172 C15.83242676 11.61006348 14.72979492 11.25186523 13.59375 10.8828125 C12.11938477 10.40932373 12.11938477 10.40932373 10.61523438 9.92626953 C5.60997076 8.15349412 3.09896834 6.42709762 0 2 C0 1.34 0 0.68 0 0 Z " fill="#FCFAF7" transform="translate(613,444)"/>
<path d="M0 0 C35.31264373 7.25574281 67.95497624 19.88229221 99.14135742 37.91943359 C99.82576904 38.31195313 100.51018066 38.70447266 101.21533203 39.10888672 C105.21331794 41.48390782 108.53245083 43.96346887 111.57885742 47.54443359 C112.20893435 51.53492081 112.20907629 53.56129216 110.01635742 56.98193359 C106.64155206 59.14527037 104.54714551 58.91232697 100.57885742 58.54443359 C97.39526367 56.85693359 97.39526367 56.85693359 94.14135742 54.54443359 C87.32037125 49.89055542 80.28723632 46.18336409 72.84350586 42.63183594 C70.38383553 41.45079113 67.93849678 40.24265596 65.49291992 39.03271484 C54.73228843 33.75078032 44.00714427 29.16108515 32.57885742 25.54443359 C31.93658203 25.33512207 31.29430664 25.12581055 30.63256836 24.91015625 C13.14169243 19.24304189 -5.34130188 14.57866691 -23.69848633 13.16162109 C-27.04298271 12.40347127 -28.2863485 11.17684866 -30.42114258 8.54443359 C-31.63626056 5.8538152 -31.48994871 4.78525507 -30.67114258 1.91943359 C-26.12217808 -6.72359895 -7.89547275 -1.50689742 0 0 Z " fill="#BAC5C9" transform="translate(617.421142578125,373.45556640625)"/>
<path d="M0 0 C5.17015334 5.32654588 4.50552056 11.16962647 4.5 18.25 C4.92275661 40.17400964 8.90273869 60.98579294 15 82 C15.22333008 82.78149414 15.44666016 83.56298828 15.67675781 84.36816406 C17.63413038 91.16104885 19.75007665 97.70074144 22.875 104.0625 C24.95721414 108.43712025 25.6495899 111.24529971 24 116 C22.375 118.5 22.375 118.5 20 120 C16.5625 120.1875 16.5625 120.1875 13 119 C8.48602249 113.63650201 6.04069885 107.91026052 3.625 101.375 C3.24069824 100.34101074 2.85639648 99.30702148 2.46044922 98.24169922 C-6.67172297 72.77371592 -12.10716541 45.27250856 -12.25 18.1875 C-12.270625 17.19041016 -12.29125 16.19332031 -12.3125 15.16601562 C-12.34155639 9.70704718 -12.18124119 5.67148282 -9 1 C-5.83263796 -0.58368102 -3.4846985 -0.42056706 0 0 Z " fill="#BAC3C6" transform="translate(301,608)"/>
<path d="M0 0 C0.33 0 0.66 0 1 0 C1.08636719 0.66386719 1.17273438 1.32773437 1.26171875 2.01171875 C2.19760719 7.89321947 3.13114115 11.17446804 8 15 C8.99 15.86625 8.99 15.86625 10 16.75 C11.96018272 18.16650832 11.96018272 18.16650832 14.453125 18.328125 C17 19 17 19 18.484375 20.75 C18.90203125 21.4925 19.3196875 22.235 19.75 23 C29.99200023 39.46035751 48.74723687 50.11270492 67.25585938 54.53955078 C80.71143104 57.60812987 93.5595332 59.2891312 107.375 59.375 C108.09677429 59.37989441 108.81854858 59.38478882 109.56219482 59.38983154 C126.17613611 59.43611759 142.08165115 56.77104573 158 52 C157.58041016 53.04607422 157.58041016 53.04607422 157.15234375 54.11328125 C156.36753943 56.07928259 155.61071469 58.05663154 154.87890625 60.04296875 C151.43253959 68.27538763 151.43253959 68.27538763 147.65234375 70.1875 C144.73839798 70.73681525 141.96342654 70.91317349 139 71 C137.55947266 71.15275391 137.55947266 71.15275391 136.08984375 71.30859375 C132.39513034 71.67943859 128.70917622 71.86691793 125 72 C124.07735352 72.03399902 123.15470703 72.06799805 122.20410156 72.10302734 C84.48444807 73.2843901 48.46454367 63.80355234 20 38 C10.18794655 28.43256838 2.18266046 17.7784972 -3 5 C-2.34 5 -1.68 5 -1 5 C-0.67 3.35 -0.34 1.7 0 0 Z " fill="#CFD7DB" transform="translate(222,498)"/>
<path d="M0 0 C10.36392671 1.99306283 18.76707648 13.92875868 25.25 21.625 C25.70648926 22.16237793 26.16297852 22.69975586 26.63330078 23.25341797 C37.62921967 36.25370967 47.34748949 49.90744907 55.5 64.875 C55.88317383 65.56585693 56.26634766 66.25671387 56.66113281 66.96850586 C58.77622882 70.99700057 59.87745582 74.07260776 59.25 78.625 C56.70149405 81.47333018 54.98877999 82.4710875 51.25 83.25 C47.1396599 82.39367915 45.5977517 79.88038767 43.25 76.625 C41.99230311 74.52883851 40.78516701 72.40167538 39.625 70.25 C28.99213868 51.155345 15.12710016 34.44841468 0.04785156 18.71289062 C-0.5505957 18.08833984 -1.14904297 17.46378906 -1.765625 16.8203125 C-2.29446289 16.27391113 -2.82330078 15.72750977 -3.36816406 15.16455078 C-5.58805257 12.6912969 -6.70080307 11.01037592 -7.125 7.6875 C-6.75 4.625 -6.75 4.625 -5.125 2.25 C-2.75 0.625 -2.75 0.625 0 0 Z " fill="#B7C5C9" transform="translate(747.75,439.375)"/>
<path d="M0 0 C8.09059307 6.75632407 8.91672096 20.45627703 10.6875 30.3125 C10.90172607 31.50109619 11.11595215 32.68969238 11.33666992 33.91430664 C12.71455361 41.81140696 13.85579189 49.52965668 13.96484375 57.56054688 C13.99245075 59.47616569 14.03780884 61.39152967 14.08984375 63.30664062 C14.18972677 67.10019787 14.25549335 70.89306997 14.3125 74.6875 C14.3575769 76.53492798 14.3575769 76.53492798 14.40356445 78.41967773 C14.41456177 80.16680054 14.41456177 80.16680054 14.42578125 81.94921875 C14.44036377 82.99424561 14.45494629 84.03927246 14.4699707 85.1159668 C13.87712042 88.7540657 12.58186167 90.41346263 10 93 C7.0625 93.625 7.0625 93.625 4 93 C1.34765625 91.234375 1.34765625 91.234375 -1 88 C-1.7144948 83.8819758 -1.64534721 79.79588723 -1.625 75.625 C-1.94835033 55.07843536 -4.77085731 34.87670323 -9.75 14.9375 C-10.85973091 10.17392103 -11.62401907 6.66905483 -10 2 C-6.61398596 -1.00979026 -4.23876925 -1.63029587 0 0 Z " fill="#B5C1C5" transform="translate(817,544)"/>
<path d="M0 0 C5.23885413 3.06691252 9.29113036 7.84260702 11.625 13.4375 C12.64802639 20.62525685 10.72212859 25.96917196 7 32.125 C2.14319922 36.85399024 -3.27225431 38.67140935 -10 38.875 C-16.95768105 38.59319448 -22.36954386 36.44295614 -27.375 31.4375 C-30.98585898 26.13921346 -32.08058562 21.78777055 -31.375 15.4375 C-29.09940788 8.49095562 -25.16317785 2.58315792 -18.5234375 -0.8671875 C-12.545223 -2.8019551 -5.74620494 -2.54774154 0 0 Z " fill="#FEC3B0" transform="translate(500.375,446.5625)"/>
<path d="M0 0 C0.76844238 0.05986084 1.53688477 0.11972168 2.32861328 0.18139648 C13.1690881 0.99344946 24.01763628 1.53507573 34.875 2.0625 C36.7382882 2.15415574 38.6015695 2.24595168 40.46484375 2.33789062 C44.97648486 2.56020672 49.48821438 2.78063717 54 3 C50.70395422 6.40718873 46.9158378 8.84448148 42.984375 11.4765625 C40.21133849 13.8213028 38.92298323 15.61757189 36.98510742 18.6027832 C34.96161351 21.22769372 33.76966437 22.74513854 30.60031128 23.7946167 C27.77810415 24.03947669 25.08344069 24.01439855 22.25390625 23.87890625 C21.24279282 23.86617172 20.23167938 23.85343719 19.18992615 23.84031677 C15.97828512 23.79015793 12.77241537 23.67730315 9.5625 23.5625 C7.37833716 23.51733052 5.19408522 23.47627026 3.00976562 23.43945312 C-2.32877313 23.3405276 -7.66397437 23.19018046 -13 23 C-11.83366361 19.95245475 -10.59892185 17.12545454 -8.90625 14.3359375 C-8.32037109 13.36527344 -8.32037109 13.36527344 -7.72265625 12.375 C-7.31917969 11.715 -6.91570313 11.055 -6.5 10.375 C-6.09652344 9.70726562 -5.69304688 9.03953125 -5.27734375 8.3515625 C-3.56783864 5.53059697 -1.82989835 2.74484753 0 0 Z " fill="#CFDCDF" transform="translate(544,710)"/>
<path d="M0 0 C3.5625 0.4375 3.5625 0.4375 6.0625 1.875 C8.61612525 6.23744314 7.16144159 10.9940554 5.99511719 15.75219727 C5.28394392 18.1911305 4.50469946 20.5945132 3.6875 23 C3.2392688 24.33236694 3.2392688 24.33236694 2.78198242 25.69165039 C-7.19796071 54.33525427 -7.19796071 54.33525427 -15.4375 64.4375 C-18.21414897 65.49501279 -20.58725451 65.19368758 -23.4375 64.4375 C-26.0625 62.5 -26.0625 62.5 -27.4375 59.4375 C-26.89245141 52.73485234 -23.97314688 46.5521341 -21.25 40.5 C-18.21354829 33.5914267 -15.2758804 26.66727605 -12.5625 19.625 C-12.28897705 18.91545166 -12.0154541 18.20590332 -11.73364258 17.47485352 C-11.47349365 16.79608154 -11.21334473 16.11730957 -10.9453125 15.41796875 C-10.69426758 14.7636084 -10.44322266 14.10924805 -10.18457031 13.43505859 C-9.66608212 12.04869572 -9.16671328 10.65509102 -8.68261719 9.25634766 C-5.68475215 0.72351391 -5.68475215 0.72351391 0 0 Z " fill="#B5C1C7" transform="translate(818.4375,662.5625)"/>
<path d="M0 0 C2.5625 1.1875 2.5625 1.1875 4 3 C4.25 5.6875 4.25 5.6875 4 8 C1.4609375 8.92773438 1.4609375 8.92773438 -1.078125 9.85546875 C-3.87948241 11.5237568 -5.25285103 13.24055442 -7 16 C-7.44584205 18.67787407 -7.72173806 21.12476299 -7.875 23.8125 C-8.52328704 30.63957995 -9.61341368 35.46912393 -15 40 C-21.56791618 44.62716335 -26.80563582 47.44696532 -35 47 C-35.66 46.34 -36.32 45.68 -37 45 C-36.69452349 41.49767631 -35.27040867 40.05249574 -32.6875 37.8125 C-26.9866756 32.3094593 -25.24363322 25.9175724 -23.125 18.4375 C-20.94271773 11.14049365 -17.83809119 6.52274773 -12.1875 1.5 C-7.99612101 -0.47241364 -4.55563248 -0.70884604 0 0 Z " fill="#543330" transform="translate(546,299)"/>
<path d="M0 0 C5.21406018 1.20236881 10.16814557 3.170127 15.1875 5 C16.21037109 5.36867188 17.23324219 5.73734375 18.28710938 6.1171875 C19.25841797 6.47039063 20.22972656 6.82359375 21.23046875 7.1875 C22.12145264 7.51105469 23.01243652 7.83460938 23.93041992 8.16796875 C26 9 26 9 27 10 C27 14.29 27 18.58 27 23 C12.15 23 -2.7 23 -18 23 C-15.27583815 18.91375722 -12.66885461 15.2470066 -9.5625 11.5 C-8.39074219 10.08267578 -8.39074219 10.08267578 -7.1953125 8.63671875 C-6.47085937 7.76660156 -5.74640625 6.89648438 -5 6 C-4.44054687 5.32582031 -3.88109375 4.65164063 -3.3046875 3.95703125 C-2.20607765 2.63556055 -1.10365225 1.31726236 0 0 Z " fill="#F8F7F7" transform="translate(424,730)"/>
<path d="M0 0 C11.23211425 16.84817137 22.28148269 33.82042037 33 51 C32.34 51.66 31.68 52.32 31 53 C28.11562221 51.70700306 26.12780579 50.34058637 24 48 C23.67 48.99 23.34 49.98 23 51 C22.67 50.01 22.34 49.02 22 48 C21.34 49.65 20.68 51.3 20 53 C17.51302808 50.71836597 15.8899076 48.35659998 14.1953125 45.4453125 C13.41075684 44.11161621 13.41075684 44.11161621 12.61035156 42.75097656 C12.07893555 41.8431543 11.54751953 40.93533203 11 40 C4.35487724 28.88178489 -2.38785774 17.99960205 -10.39306641 7.79833984 C-14 3.18288461 -14 3.18288461 -14 1 C-12.86111328 1.10828125 -12.86111328 1.10828125 -11.69921875 1.21875 C-10.70535156 1.3115625 -9.71148438 1.404375 -8.6875 1.5 C-7.20830078 1.63921875 -7.20830078 1.63921875 -5.69921875 1.78125 C-2.95297861 2.04038857 -2.95297861 2.04038857 0 2 C0 1.34 0 0.68 0 0 Z " fill="#B9703B" transform="translate(530,356)"/>
<path d="M0 0 C0.66 0.33 1.32 0.66 2 1 C-22.68838169 30.36705977 -22.68838169 30.36705977 -39 37 C-41.0859375 37.05859375 -41.0859375 37.05859375 -43 36 C-44.68609635 34.04631498 -46.15825833 32.1672743 -47.625 30.0625 C-50.59179172 25.85149766 -50.59179172 25.85149766 -54 22 C-53.44820068 21.89187988 -52.89640137 21.78375977 -52.32788086 21.67236328 C-46.83975989 20.53431931 -41.75892061 18.96014673 -36.5625 16.875 C-35.79752197 16.57223145 -35.03254395 16.26946289 -34.24438477 15.95751953 C-17.42818634 9.27929048 -17.42818634 9.27929048 -1.53125 0.71484375 C-1.0259375 0.47894531 -0.520625 0.24304688 0 0 Z " fill="#BF713E" transform="translate(471,552)"/>
<path d="M0 0 C5.5989189 3.10590916 8.87766488 5.93244344 11.265625 11.90234375 C11.31835638 13.56817603 11.32825879 15.2368544 11.265625 16.90234375 C10.20033569 16.97751221 10.20033569 16.97751221 9.11352539 17.05419922 C5.85118789 17.28834208 2.58969655 17.53277151 -0.671875 17.77734375 C-1.78884766 17.85597656 -2.90582031 17.93460937 -4.05664062 18.015625 C-10.47502959 18.50500363 -16.48092531 19.38941237 -22.734375 20.90234375 C-25.796875 21.02734375 -25.796875 21.02734375 -27.734375 20.90234375 C-28.29216795 15.32441421 -26.83513057 11.44047582 -23.734375 6.90234375 C-17.07502406 -0.11237859 -9.54163788 -3.83028606 0 0 Z " fill="#B76E39" transform="translate(395.734375,270.09765625)"/>
<path d="M0 0 C10.33554833 -0.56547073 18.20032633 0.66394088 28 4 C28 4.33 28 4.66 28 5 C26.88625 5.07476563 25.7725 5.14953125 24.625 5.2265625 C2.29283957 7.02782138 -16.06986038 16.29907741 -31.6875 32.625 C-38.57697385 40.92557091 -43.63190087 51.51622782 -46 62 C-46.33 62 -46.66 62 -47 62 C-48.11087293 49.33604864 -42.47451078 36.05192829 -35 26 C-25.35921117 14.5902591 -15.10548118 7.05668193 -1 2 C-0.67 1.34 -0.34 0.68 0 0 Z " fill="#FCF7F4" transform="translate(666,615)"/>
<path d="M0 0 C3.39272405 2.1233375 5.77443802 4.66165704 8 8 C8.34832048 12.76931119 7.65284447 16.17071108 4.6875 19.9375 C0.31756979 23.29116737 -2.3644493 24.67626608 -8 24 C-11.6578218 21.96006092 -13.66946174 20.49580738 -16 17 C-16.66702427 13.23987202 -16.72284885 9.75345961 -16 6 C-11.65550659 0.13550106 -7.02478986 -1.63911763 0 0 Z " fill="#F9F8F8" transform="translate(441,369)"/>
<path d="M0 0 C81.84 0 163.68 0 248 0 C248 0.33 248 0.66 248 1 C242.80678663 2.06052656 237.83581467 2.1516113 232.5625 2.125 C231.60980225 2.12306641 230.65710449 2.12113281 229.67553711 2.11914062 C213.11401025 2.02746461 196.55409592 1.47265093 180 1 C179.67 1.66 179.34 2.32 179 3 C178.67 2.67 178.34 2.34 178 2 C176.33562547 1.90117283 174.66706129 1.87201013 172.99975586 1.87060547 C171.39559059 1.86587723 171.39559059 1.86587723 169.75901794 1.86105347 C168.00465172 1.86408981 168.00465172 1.86408981 166.21484375 1.8671875 C165.01122696 1.86623077 163.80761017 1.86527405 162.56752014 1.86428833 C160.00424142 1.86360549 157.44096098 1.86546697 154.87768555 1.86962891 C151.00630641 1.87490621 147.13504704 1.86972404 143.26367188 1.86328125 C131.73250163 1.86122803 120.2691772 1.88494578 108.77563477 2.88330078 C106 3 106 3 103 2 C102.34 2.165 101.68 2.33 101 2.5 C99 3 99 3 96 2 C95.401875 2.165 94.80375 2.33 94.1875 2.5 C91.22881215 3.17627151 88.97006605 2.58236589 86 2 C83.66742506 1.66140041 81.33425788 1.3267961 79 1 C78.67 1.66 78.34 2.32 78 3 C77.401875 2.814375 76.80375 2.62875 76.1875 2.4375 C73.83591238 1.77906313 73.83591238 1.77906313 71 3 C70.29875 2.855625 69.5975 2.71125 68.875 2.5625 C64.49912262 1.70635008 59.08197428 0.95901286 55 3 C54.154375 2.855625 53.30875 2.71125 52.4375 2.5625 C47.22080485 1.70885898 42.05374358 1.31541881 37 3 C34.46088707 2.91224916 31.96633318 2.77064426 29.4375 2.5625 C24.72395516 2.16145152 24.72395516 2.16145152 20 2 C20 2.66 20 3.32 20 4 C13.30992818 3.47594437 6.6512513 2.89536075 0 2 C0 1.34 0 0.68 0 0 Z " fill="#D8DEE3" transform="translate(273,772)"/>
<path d="M0 0 C1.01416992 -0.01160156 1.01416992 -0.01160156 2.04882812 -0.0234375 C7.0590035 -0.0034965 7.0590035 -0.0034965 9.3125 2.25 C8.29542969 2.36214844 8.29542969 2.36214844 7.2578125 2.4765625 C-3.97628389 4.06365091 -12.58554872 9.39623407 -19.6875 18.25 C-23.67679063 24.21408873 -25.2484646 29.55384407 -25.44921875 36.70703125 C-25.72525655 39.65294283 -26.23395542 41.6634811 -27.6875 44.25 C-30.3125 45.5625 -30.3125 45.5625 -32.6875 46.25 C-32.30225735 32.15011888 -30.24328976 17.39765138 -19.4765625 7.14453125 C-13.04831856 1.9656304 -8.37404081 -0.03280721 0 0 Z " fill="#FAF7F6" transform="translate(540.6875,277.75)"/>
<path d="M0 0 C3.3247764 3.84509949 3.52100821 6.46855577 3.33984375 11.41796875 C2.29896175 19.32627913 -3.21149936 25.80436256 -9 31 C-11.75390625 32.2578125 -11.75390625 32.2578125 -14 33 C-14.66 32.34 -15.32 31.68 -16 31 C-15.525625 30.0925 -15.05125 29.185 -14.5625 28.25 C-13.02246912 24.77433397 -12.81107436 21.7832765 -12.6875 18 C-12.36184306 12.80902833 -11.39339733 9.88835884 -7.69921875 6.203125 C-5.22474098 4.45108097 -2.9923098 4.07124547 0 4 C0 2.68 0 1.36 0 0 Z " fill="#E68E71" transform="translate(550,303)"/>
<path d="M0 0 C21.12 0 42.24 0 64 0 C64 0.33 64 0.66 64 1 C20.47249298 8.49083099 20.47249298 8.49083099 13 6 C12.67 4.35 12.34 2.7 12 1 C8.37 1.33 4.74 1.66 1 2 C0.67 1.34 0.34 0.68 0 0 Z " fill="#CCD7DC" transform="translate(715,772)"/>
<path d="M0 0 C0.33 0.66 0.66 1.32 1 2 C1.8971875 1.7215625 1.8971875 1.7215625 2.8125 1.4375 C5 1 5 1 8 2 C6.62474524 10.99344231 4.41453751 18.06836999 -3 24 C-4.32 23.67 -5.64 23.34 -7 23 C-7 18.38 -7 13.76 -7 9 C-5.35 8.34 -3.7 7.68 -2 7 C-0.62032476 3.46485707 -0.62032476 3.46485707 0 0 Z " fill="#F9B395" transform="translate(515,315)"/>
<path d="M0 0 C5.33992856 2.43423771 7.4455476 6.32429926 10.3125 11.1875 C10.9940918 12.31188477 10.9940918 12.31188477 11.68945312 13.45898438 C12.80330656 15.29977374 13.90307539 17.14907284 15 19 C14.34 19.66 13.68 20.32 13 21 C10.11562221 19.70700306 8.12780579 18.34058637 6 16 C5.67 16.99 5.34 17.98 5 19 C4.67 18.01 4.34 17.02 4 16 C3.01 18.475 3.01 18.475 2 21 C-1.37071134 17.79832139 -4.13363063 14.28265115 -6 10 C-5.3125 7 -5.3125 7 -4 5 C-3.34 5 -2.68 5 -2 5 C-2 4.34 -2 3.68 -2 3 C-1.01 3 -0.02 3 1 3 C0.34 2.34 -0.32 1.68 -1 1 C-0.67 0.67 -0.34 0.34 0 0 Z " fill="#C57640" transform="translate(548,388)"/>
<path d="M0 0 C0.66 0.33 1.32 0.66 2 1 C0.98679687 2.39412109 0.98679687 2.39412109 -0.046875 3.81640625 C-0.9480969 5.06497409 -1.84912839 6.31367939 -2.75 7.5625 C-3.1934375 8.17158203 -3.636875 8.78066406 -4.09375 9.40820312 C-7.01954815 13.47420202 -9.58281751 17.61179721 -12 22 C-15.96 22 -19.92 22 -24 22 C-20.46444666 18.41911906 -16.84175106 14.95561478 -13.125 11.5625 C-12.34044434 10.84453247 -12.34044434 10.84453247 -11.54003906 10.11206055 C-7.75704289 6.66186042 -3.91838159 3.2950027 0 0 Z " fill="#BF7640" transform="translate(507,730)"/>
<path d="M0 0 C0 0.33 0 0.66 0 1 C-1.65 1 -3.3 1 -5 1 C-5 1.66 -5 2.32 -5 3 C-2.03 3.495 -2.03 3.495 1 4 C1 4.33 1 4.66 1 5 C-10.22 5 -21.44 5 -33 5 C-32 3 -32 3 -30.234375 2.1484375 C-20.36082437 -0.92540374 -10.22304739 -0.27760677 0 0 Z " fill="#D58E5A" transform="translate(641,726)"/>
<path d="M0 0 C-0.33 0.99 -0.66 1.98 -1 3 C1.64 3 4.28 3 7 3 C7 3.33 7 3.66 7 4 C2.42847075 4.02485982 -2.14301847 4.04293526 -6.71459961 4.05493164 C-8.26734096 4.05993684 -9.82007766 4.06674301 -11.37280273 4.07543945 C-13.61443232 4.08767307 -15.85599918 4.09326657 -18.09765625 4.09765625 C-19.12621483 4.10539818 -19.12621483 4.10539818 -20.17555237 4.11329651 C-24.56391821 4.1137986 -28.68401845 3.70910669 -33 3 C-32.67 2.34 -32.34 1.68 -32 1 C-9.19872014 -0.19388403 -9.19872014 -0.19388403 0 0 Z " fill="#BE6E40" transform="translate(593,708)"/>
<path d="M0 0 C0.33 0 0.66 0 1 0 C1.84629011 3.99737031 2.67466787 7.99825449 3.5 12 C3.73847656 13.12535156 3.97695313 14.25070312 4.22265625 15.41015625 C5.44773945 21.39556275 6.29950122 26.89017503 6 33 C5.34 32.34 4.68 31.68 4 31 C3.505 33.475 3.505 33.475 3 36 C2.67 36 2.34 36 2 36 C1.26329764 31.30450557 0.83135571 26.72214776 0.68359375 21.97265625 C0.64169922 20.68681641 0.59980469 19.40097656 0.55664062 18.07617188 C0.516843 16.73828375 0.47713049 15.40039309 0.4375 14.0625 C0.39423346 12.69725438 0.35061679 11.33201982 0.30664062 9.96679688 C0.20098847 6.64462348 0.09888605 3.32238054 0 0 Z " fill="#CA7D47" transform="translate(776,578)"/>
<path d="M0 0 C21.12 0 42.24 0 64 0 C64 0.33 64 0.66 64 1 C61.35491639 1.36082877 58.70920453 1.71395352 56.0625 2.0625 C55.30775391 2.16626953 54.55300781 2.27003906 53.77539062 2.37695312 C51.85525872 2.62665638 49.92771856 2.81790281 48 3 C47.505 2.505 47.505 2.505 47 2 C45.55710213 1.90704185 44.10970215 1.88253487 42.66381836 1.88647461 C41.7429393 1.88655014 40.82206024 1.88662567 39.87327576 1.88670349 C38.37172691 1.89444542 38.37172691 1.89444542 36.83984375 1.90234375 C35.31043907 1.90446617 35.31043907 1.90446617 33.75013733 1.90663147 C30.47922893 1.91224903 27.20838787 1.9248045 23.9375 1.9375 C21.72591244 1.94251274 19.51432382 1.94707604 17.30273438 1.95117188 C11.86846643 1.96222416 6.43423803 1.97897937 1 2 C0.67 1.34 0.34 0.68 0 0 Z " fill="#D6DEE3" transform="translate(715,772)"/>
<path d="M0 0 C0.226875 0.61875 0.45375 1.2375 0.6875 1.875 C2.37929835 4.61410209 3.99244161 5.05024472 7 6 C6.2884375 6.8353125 6.2884375 6.8353125 5.5625 7.6875 C3.87604004 10.18346074 3.41046893 12.0446237 3 15 C2.01 15.33 1.02 15.66 0 16 C-0.66 15.67 -1.32 15.34 -2 15 C-2 10.38 -2 5.76 -2 1 C-1.34 0.67 -0.68 0.34 0 0 Z " fill="#F9AD87" transform="translate(510,323)"/>
<path d="M0 0 C0.40299316 0.66572021 0.80598633 1.33144043 1.22119141 2.01733398 C2.78856374 4.22431029 2.78856374 4.22431029 5.07177734 4.15649414 C6.25441162 3.94174438 6.25441162 3.94174438 7.4609375 3.72265625 C13.26736252 2.88789031 18.78327377 3.09822752 24.625 3.4375 C25.62917969 3.48970703 26.63335938 3.54191406 27.66796875 3.59570312 C30.11242295 3.72374596 32.55628782 3.85860967 35 4 C35 4.33 35 4.66 35 5 C24.605 5.495 24.605 5.495 14 6 C16.97 6.495 16.97 6.495 20 7 C20 7.33 20 7.66 20 8 C12.47280398 8.25515919 5.41148455 7.28297723 -2 6 C-1.34 4.02 -0.68 2.04 0 0 Z " fill="#CC8555" transform="translate(547,704)"/>
<path d="M0 0 C1.828125 0.21484375 1.828125 0.21484375 4 1 C5.484375 3.06640625 5.484375 3.06640625 6.75 5.5625 C7.17796875 6.38878906 7.6059375 7.21507812 8.046875 8.06640625 C8.36140625 8.70449219 8.6759375 9.34257812 9 10 C5.66659655 10 3.79015606 9.73162598 1.3125 7.4375 C0.879375 6.963125 0.44625 6.48875 0 6 C-0.33 6.99 -0.66 7.98 -1 9 C-1.33 8.01 -1.66 7.02 -2 6 C-2.66 7.65 -3.32 9.3 -4 11 C-4.99 10.01 -5.98 9.02 -7 8 C-5.60746468 4.51866169 -4.36823784 3.52113967 -1 2 C-0.67 1.34 -0.34 0.68 0 0 Z " fill="#D08248" transform="translate(554,398)"/>
<path d="M0 0 C3 2 3 2 4 3 C4.66 3 5.32 3 6 3 C7.4606285 5.64738916 8 6.89448334 8 10 C8.99 10.33 9.98 10.66 11 11 C10.01 12.485 10.01 12.485 9 14 C6 14.375 6 14.375 3 14 C2.34 13.01 1.68 12.02 1 11 C2.875 7.125 2.875 7.125 4 6 C2.68 5.34 1.36 4.68 0 4 C0 3.34 0 2.68 0 2 C-0.66 1.67 -1.32 1.34 -2 1 C-1.34 0.67 -0.68 0.34 0 0 Z " fill="#EDA476" transform="translate(518,345)"/>
<path d="M0 0 C3.63 0 7.26 0 11 0 C10.67 1.32 10.34 2.64 10 4 C6.31568155 6.10520749 3.21434971 6.19047947 -0.95703125 5.9765625 C-2.06884766 5.925 -3.18066406 5.8734375 -4.32617188 5.8203125 C-5.47666016 5.75585938 -6.62714844 5.69140625 -7.8125 5.625 C-9.56723633 5.53992188 -9.56723633 5.53992188 -11.35742188 5.453125 C-14.23893 5.31198991 -17.11952248 5.16060844 -20 5 C-20 4.67 -20 4.34 -20 4 C-13.73 3.67 -7.46 3.34 -1 3 C-0.67 2.01 -0.34 1.02 0 0 Z " fill="#CE8961" transform="translate(593,708)"/>
<path d="M0 0 C3.875 1.75 3.875 1.75 5 4 C5.06950541 5.54023996 5.08452357 7.08334988 5.0625 8.625 C5.05347656 9.44226563 5.04445313 10.25953125 5.03515625 11.1015625 C5.02355469 11.72804688 5.01195312 12.35453125 5 13 C4.34 12.34 3.68 11.68 3 11 C2.01 11.99 1.02 12.98 0 14 C-1.54799337 9.35601989 -1.49594333 4.67482292 0 0 Z " fill="#C7763D" transform="translate(777,607)"/>
<path d="M0 0 C0.33 1.65 0.66 3.3 1 5 C-8.41002278 6.33257403 -8.41002278 6.33257403 -13 5 C-12.67 4.01 -12.34 3.02 -12 2 C-10.0390625 1.26953125 -10.0390625 1.26953125 -7.625 0.8125 C-6.83351563 0.65394531 -6.04203125 0.49539063 -5.2265625 0.33203125 C-3 0 -3 0 0 0 Z " fill="#523433" transform="translate(639,442)"/>
<path d="M0 0 C0.33 0.99 0.66 1.98 1 3 C0.01 4.485 0.01 4.485 -1 6 C-0.16666667 8.16666667 -0.16666667 8.16666667 2 9 C1.01 10.32 0.02 11.64 -1 13 C-1.4125 12.195625 -1.825 11.39125 -2.25 10.5625 C-3.73452331 7.85890282 -3.73452331 7.85890282 -6.1875 7.1875 C-6.785625 7.125625 -7.38375 7.06375 -8 7 C-8 6.01 -8 5.02 -8 4 C-5.36 2.68 -2.72 1.36 0 0 Z " fill="#F8B08B" transform="translate(527,341)"/>
<path d="M0 0 C3.36969857 3.86891317 3.43709992 6.54280298 3.3046875 11.515625 C2.90363695 14.78572949 1.74907759 17.23062715 0 20 C-1.13741398 15.87687432 -2.05727448 10.92797111 0.0625 7.0625 C1.2880743 4.36623655 0.77647642 2.79531511 0 0 Z " fill="#DD896D" transform="translate(550,303)"/>
<path d="M0 0 C0.33 0.66 0.66 1.32 1 2 C-1.88415883 3.44207941 -4.41721528 3.09394887 -7.625 3.0625 C-8.81351563 3.05347656 -10.00203125 3.04445313 -11.2265625 3.03515625 C-12.14179687 3.02355469 -13.05703125 3.01195312 -14 3 C-13 1 -13 1 -10.375 -0.1875 C-6.51611868 -1.11648995 -3.84662785 -0.9050889 0 0 Z " fill="#E19560" transform="translate(622,728)"/>
<path d="M0 0 C1.0209375 0.433125 1.0209375 0.433125 2.0625 0.875 C5.32893093 2.12597355 8.62846123 3.07447955 12 4 C11.01 5.32 10.02 6.64 9 8 C9.66 9.32 10.32 10.64 11 12 C6.43951988 8.38748484 2.98334854 5.01202555 0 0 Z " fill="#E3A972" transform="translate(618,451)"/>
<path d="M0 0 C0.66 0.66 1.32 1.32 2 2 C1.67 2.33 1.34 2.66 1 3 C1.66 3.33 2.32 3.66 3 4 C3 4.66 3 5.32 3 6 C0.13456775 8.65317801 -2.21491327 9.34090529 -6 10 C-5.18957164 8.51969728 -4.37659652 7.04078858 -3.5625 5.5625 C-2.88380859 4.32693359 -2.88380859 4.32693359 -2.19140625 3.06640625 C-1 1 -1 1 0 0 Z " fill="#432D2B" transform="translate(765,692)"/>
<path d="M0 0 C0 0.33 0 0.66 0 1 C-6.39375619 2.59843905 -12.59345955 2.28130809 -19 1 C-19 0.67 -19 0.34 -19 0 C-16.77369595 -0.39163671 -14.54376235 -0.76267785 -12.3125 -1.125 C-11.07113281 -1.33382812 -9.82976562 -1.54265625 -8.55078125 -1.7578125 C-4.96298276 -2.00252483 -3.15186273 -1.62715667 0 0 Z " fill="#533737" transform="translate(372,586)"/>
<path d="M0 0 C2.97 0.495 2.97 0.495 6 1 C5.8125 3.375 5.8125 3.375 5 6 C2.4375 7.3125 2.4375 7.3125 0 8 C-0.99 7.01 -1.98 6.02 -3 5 C-2.01 4.34 -1.02 3.68 0 3 C0 2.01 0 1.02 0 0 Z " fill="#533736" transform="translate(247,557)"/>
<path d="M0 0 C0.33 0 0.66 0 1 0 C1.50643553 2.22771342 2.0048962 4.45724076 2.5 6.6875 C2.7784375 7.92886719 3.056875 9.17023437 3.34375 10.44921875 C3.89354126 13.42398218 4.13795705 15.99368602 4 19 C3.01 18.67 2.02 18.34 1 18 C0.67 12.06 0.34 6.12 0 0 Z " fill="#D19563" transform="translate(776,578)"/>
<path d="M0 0 C-7.23284624 3.97320029 -15.07389126 3.07556799 -23 2 C-23 1.67 -23 1.34 -23 1 C-22.04738281 0.93941406 -21.09476562 0.87882813 -20.11328125 0.81640625 C-18.23189453 0.69072266 -18.23189453 0.69072266 -16.3125 0.5625 C-15.07113281 0.48128906 -13.82976562 0.40007813 -12.55078125 0.31640625 C-1.8984375 -0.6328125 -1.8984375 -0.6328125 0 0 Z " fill="#B8B6B8" transform="translate(376,587)"/>
<path d="M0 0 C3.37503669 1.1858237 5.64722731 2.27573689 8 5 C7.34 5 6.68 5 6 5 C6 5.66 6 6.32 6 7 C5.34 7 4.68 7 4 7 C4 6.34 4 5.68 4 5 C3.01 5 2.02 5 1 5 C0.67 5.66 0.34 6.32 0 7 C0 4.69 0 2.38 0 0 Z " fill="#E8A36A" transform="translate(490,322)"/>
<path d="M0 0 C2.78637633 4.1795645 1.79562512 6.14668677 1 11 C-0.70884005 9.37660195 -2.37446717 7.70680947 -4 6 C-4 5.34 -4 4.68 -4 4 C-3.01 3.67 -2.02 3.34 -1 3 C-0.67 2.01 -0.34 1.02 0 0 Z " fill="#EBA16C" transform="translate(507,326)"/>
<path d="M0 0 C0.66 0.66 1.32 1.32 2 2 C1.79296875 4.27734375 1.79296875 4.27734375 1.1875 6.9375 C0.99542969 7.81277344 0.80335938 8.68804687 0.60546875 9.58984375 C0 12 0 12 -1 15 C-1.66 15 -2.32 15 -3 15 C-2.68917128 13.24970238 -2.37626821 11.49977306 -2.0625 9.75 C-1.88847656 8.77546875 -1.71445313 7.8009375 -1.53515625 6.796875 C-1.09620271 4.50278205 -0.59651408 2.25708029 0 0 Z " fill="#553F3F" transform="translate(196,421)"/>
<path d="M0 0 C0.7425 0.0825 1.485 0.165 2.25 0.25 C1.92 1.24 1.59 2.23 1.25 3.25 C2.24 3.58 3.23 3.91 4.25 4.25 C0.62 4.25 -3.01 4.25 -6.75 4.25 C-3.42692308 0.31153846 -3.42692308 0.31153846 0 0 Z " fill="#DE8F4F" transform="translate(286.75,357.75)"/>
<path d="M0 0 C0.66 0.33 1.32 0.66 2 1 C1.67 1.99 1.34 2.98 1 4 C1.66 4 2.32 4 3 4 C3 5.65 3 7.3 3 9 C2.01 9 1.02 9 0 9 C-2 4.25 -2 4.25 -2 2 C-1.34 2 -0.68 2 0 2 C0 1.34 0 0.68 0 0 Z " fill="#543938" transform="translate(741,501)"/>
<path d="M0 0 C0.33 0 0.66 0 1 0 C1.05416188 1.60379341 1.09286638 3.20811406 1.125 4.8125 C1.14820313 5.70582031 1.17140625 6.59914063 1.1953125 7.51953125 C1 10 1 10 -1 13 C-1.99 12.34 -2.98 11.68 -4 11 C-3.67 9.68 -3.34 8.36 -3 7 C-2.01 7 -1.02 7 0 7 C0 4.69 0 2.38 0 0 Z " fill="#E7A890" transform="translate(568,306)"/>
<path d="M0 0 C0.66 0.33 1.32 0.66 2 1 C1.34 2.32 0.68 3.64 0 5 C-0.99 5 -1.98 5 -3 5 C-3.33 5.66 -3.66 6.32 -4 7 C-4.99 6.34 -5.98 5.68 -7 5 C-4.69 3.35 -2.38 1.7 0 0 Z " fill="#50393A" transform="translate(370,253)"/>
<path d="M0 0 C0.99 0 1.98 0 3 0 C3 0.66 3 1.32 3 2 C-0.13456443 4.95544646 -2.62768671 6.76365874 -7 7 C-7.66 6.34 -8.32 5.68 -9 5 C-8.43410156 4.80664062 -7.86820312 4.61328125 -7.28515625 4.4140625 C-6.55167969 4.15367187 -5.81820313 3.89328125 -5.0625 3.625 C-3.96615234 3.24214844 -3.96615234 3.24214844 -2.84765625 2.8515625 C-0.81317884 2.14728587 -0.81317884 2.14728587 0 0 Z " fill="#553838" transform="translate(280,419)"/>
<path d="M0 0 C0.66 0.66 1.32 1.32 2 2 C1.34 2.66 0.68 3.32 0 4 C-0.165 4.845625 -0.33 5.69125 -0.5 6.5625 C-0.665 7.366875 -0.83 8.17125 -1 9 C-1.99 9.495 -1.99 9.495 -3 10 C-3.29296875 3.9453125 -3.29296875 3.9453125 -3 2 C-2.01 1.34 -1.02 0.68 0 0 Z " fill="#ED9579" transform="translate(542,316)"/>
<path d="M0 0 C3 2 3 2 4 3 C4.66 3 5.32 3 6 3 C6.33 4.32 6.66 5.64 7 7 C6.01 7.495 6.01 7.495 5 8 C4.67 7.34 4.34 6.68 4 6 C1.98330173 4.86649466 1.98330173 4.86649466 0 4 C0 3.34 0 2.68 0 2 C-0.66 1.67 -1.32 1.34 -2 1 C-1.34 0.67 -0.68 0.34 0 0 Z " fill="#F1AA81" transform="translate(518,345)"/>
<path d="M0 0 C-0.33 0.99 -0.66 1.98 -1 3 C-4.0625 4.1875 -4.0625 4.1875 -7 5 C-7.33 4.01 -7.66 3.02 -8 2 C-2.25 0 -2.25 0 0 0 Z " fill="#533839" transform="translate(321,325)"/>
<path d="M0 0 C0.99 0 1.98 0 3 0 C2.21302675 3.41021743 1.12880057 6.68885166 0 10 C-0.33 10 -0.66 10 -1 10 C-2.25 3.375 -2.25 3.375 0 0 Z " fill="#482B28" transform="translate(538,309)"/>
<path d="M0 0 C0.33 0.99 0.66 1.98 1 3 C-0.65 4.65 -2.3 6.3 -4 8 C-4 4 -4 4 -2 1.75 C-1.01 0.88375 -1.01 0.88375 0 0 Z " fill="#D18B56" transform="translate(466,411)"/>
<path d="M0 0 C0.66 0.33 1.32 0.66 2 1 C0.66666667 4.33333333 -0.66666667 7.66666667 -2 11 C-2.66 11 -3.32 11 -4 11 C-3.52269162 9.5410574 -3.04308958 8.08286504 -2.5625 6.625 C-2.29566406 5.81289063 -2.02882813 5.00078125 -1.75390625 4.1640625 C-1 2 -1 2 0 0 Z " fill="#5B4141" transform="translate(497,285)"/>
<path d="M0 0 C0.99 0.33 1.98 0.66 3 1 C-0.465 3.97 -0.465 3.97 -4 7 C-4.66 6.67 -5.32 6.34 -6 6 C-4.02 4.02 -2.04 2.04 0 0 Z " fill="#412C28" transform="translate(742,721)"/>
<path d="M0 0 C3.25543229 0.34879632 4.01873107 1.02133261 6.25 3.5625 C6.8275 4.366875 7.405 5.17125 8 6 C5 6 5 6 3.61328125 4.6875 C2.40885417 3.125 1.20442708 1.5625 0 0 Z " fill="#583F3F" transform="translate(736,478)"/>
<path d="M0 0 C2.97 0.33 5.94 0.66 9 1 C9 1.66 9 2.32 9 3 C6.03 2.67 3.06 2.34 0 2 C0 1.34 0 0.68 0 0 Z " fill="#644D4D" transform="translate(626,445)"/>
<path d="M0 0 C0.33 1.32 0.66 2.64 1 4 C1.66 4 2.32 4 3 4 C3 5.65 3 7.3 3 9 C2.01 9.495 2.01 9.495 1 10 C-0.1577506 6.52674819 -0.06866652 3.63932552 0 0 Z " fill="#CE8653" transform="translate(776,611)"/>
<path d="M0 0 C-0.33 0.99 -0.66 1.98 -1 3 C-1.66 3 -2.32 3 -3 3 C-3.66 4.32 -4.32 5.64 -5 7 C-5.99 6.34 -6.98 5.68 -8 5 C-2.25 0 -2.25 0 0 0 Z " fill="#F1A487" transform="translate(536,335)"/>
<path d="M0 0 C0.33 0.99 0.66 1.98 1 3 C0.34 3 -0.32 3 -1 3 C-1.66 4.32 -2.32 5.64 -3 7 C-3.99 7 -4.98 7 -6 7 C-4.02 4.69 -2.04 2.38 0 0 Z " fill="#3E2925" transform="translate(755,707)"/>
<path d="M0 0 C1.31223496 3.93670488 0.24296256 6.12488144 -1 10 C-1.33 10 -1.66 10 -2 10 C-2 7.03 -2 4.06 -2 1 C-1.34 0.67 -0.68 0.34 0 0 Z " fill="#EEE7E2" transform="translate(621,667)"/>
<path d="M0 0 C-0.9977758 2.99332739 -1.7522025 3.94766315 -4 6 C-4.99 5.01 -5.98 4.02 -7 3 C-2.25 0 -2.25 0 0 0 Z " fill="#D9935A" transform="translate(437,586)"/>
<path d="M0 0 C0.99 0 1.98 0 3 0 C2.67 2.31 2.34 4.62 2 7 C1.01 7.33 0.02 7.66 -1 8 C-0.67 5.36 -0.34 2.72 0 0 Z " fill="#492926" transform="translate(505,322)"/>
</svg>
